<?xml version="1.0" encoding="utf-8"?>
<!-- Generator: Adobe Illustrator 15.1.0, SVG Export Plug-In . SVG Version: 6.00 Build 0)  -->
<!DOCTYPE svg PUBLIC "-//W3C//DTD SVG 1.1//EN" "http://www.w3.org/Graphics/SVG/1.1/DTD/svg11.dtd">
<svg version="1.1" id="Capa_1" xmlns="http://www.w3.org/2000/svg" xmlns:xlink="http://www.w3.org/1999/xlink" x="0px" y="0px"
	 width="390px" height="620px" viewBox="54.737 79.194 390 620" enable-background="new 54.737 79.194 390 620"
	 xml:space="preserve">
<g>
	<g opacity="0.2">
		<g>
			<g>
				<defs>
					<rect id="SVGID_1_" x="107.076" y="134.7" width="289.64" height="562.836"/>
				</defs>
				<clipPath id="SVGID_2_">
					<use xlink:href="#SVGID_1_"  overflow="visible"/>
				</clipPath>
				<polygon clip-path="url(#SVGID_2_)" fill="#1E1E1C" points="204.245,697.536 297.303,697.536 297.303,647.081 396.716,647.081 
					396.716,203.84 312.251,203.84 312.251,134.701 298.051,134.701 298.051,157.87 218.07,157.87 218.07,134.701 192.287,134.701 
					192.287,205.71 107.076,205.71 107.076,646.71 204.245,646.71 				"/>
			</g>
		</g>
	</g>
	<rect x="55.151" y="79.195" fill="#0653A1" width="77.876" height="117.975"/>
	<rect x="136.836" y="79.287" fill="#F9AE0A" width="46.327" height="117.781"/>
	<polygon fill="#F9AE0A" points="211.322,126.208 186.908,126.236 186.908,79.195 211.44,79.195 	"/>
	<rect x="320.519" y="79.279" fill="#1E1E1C" width="45.676" height="116.874"/>
	<rect x="404.376" y="198.625" fill="#F9AE0A" width="39.967" height="85.396"/>
	<rect x="404.376" y="287.688" fill="#F9AE0A" width="39.967" height="91.429"/>
	<rect x="404.376" y="382.862" fill="#F9AE0A" width="39.967" height="63.964"/>
	<rect x="404.376" y="450.588" fill="#F9AE0A" width="39.967" height="62.701"/>
	<rect x="404.376" y="517.035" fill="#5E356C" width="39.967" height="89.741"/>
	<rect x="404.376" y="610.499" fill="#5E356C" width="39.967" height="33.396"/>
	<rect x="55.142" y="200.965" fill="#E63223" width="43.531" height="115.579"/>
	<rect x="55.135" y="378.306" fill="#068978" width="43.354" height="53.883"/>
	<rect x="55.135" y="320.692" fill="#068978" width="43.354" height="53.871"/>
	<rect x="55.128" y="435.938" fill="#0653A1" width="43.442" height="66.449"/>
	<rect x="55.128" y="506.147" fill="#E63223" width="43.531" height="95.648"/>
	<rect x="55.205" y="647.514" fill="#F9AE0A" width="43.445" height="51.383"/>
	<rect x="55.027" y="605.584" fill="#1E1E1C" width="43.535" height="38.182"/>
	<rect x="102.443" y="654.861" fill="#068978" width="46.078" height="44.188"/>
	<rect x="152.268" y="654.74" fill="#068978" width="44.248" height="44.454"/>
	<rect x="215.964" y="268.737" fill="#E63223" width="68.157" height="260.126"/>
	<rect x="287.866" y="303.396" fill="#E63223" width="54.597" height="191.565"/>
	<rect x="157.619" y="403.461" fill="#E63223" width="54.598" height="91.679"/>
	<rect x="157.619" y="303.351" fill="#0653A1" width="54.598" height="96.246"/>
	<rect x="304.84" y="654.693" fill="#0653A1" width="95.874" height="44.296"/>
	<polygon fill="#1E1E1C" points="416.762,79.254 414.606,79.254 370.06,79.254 370.06,142.683 404.375,142.683 404.375,160.243 
		404.375,167.673 404.375,191.129 369.4,191.129 369.4,194.966 444.342,194.966 444.342,194.87 444.342,191.129 444.342,167.69 
		444.401,167.69 444.401,79.254 	"/>
	<path fill="#FFFFFF" d="M250.34,399.19c0,0.715,0.028,1.419,0.121,1.838h-2.132l-0.141-0.757h-0.044
		c-0.497,0.605-1.286,0.93-2.178,0.93c-1.548,0-2.474-1.122-2.474-2.329c0-1.985,1.782-2.914,4.475-2.914v-0.099
		c0-0.404-0.217-0.984-1.381-0.984c-0.78,0-1.606,0.264-2.105,0.565l-0.437-1.517c0.531-0.297,1.575-0.681,2.965-0.681
		c2.532,0,3.332,1.493,3.332,3.289v2.658H250.34z M248.051,397.431c-1.244,0-2.217,0.3-2.217,1.194c0,0.609,0.409,0.911,0.936,0.911
		c0.582,0,1.076-0.391,1.231-0.868c0.037-0.137,0.051-0.271,0.051-0.409L248.051,397.431L248.051,397.431z"/>
	<polygon fill="#FFFFFF" points="254.559,393.005 254.531,393.005 252.596,393.923 252.204,392.151 254.901,390.902 
		256.851,390.902 256.851,401.028 254.559,401.028 	"/>
	<path fill="#FFFFFF" d="M314.133,401.787c0,0.718,0.027,1.424,0.121,1.846h-2.133l-0.137-0.77h-0.056
		c-0.488,0.607-1.268,0.936-2.17,0.936c-1.546,0-2.463-1.124-2.463-2.332c0-1.979,1.776-2.913,4.468-2.913v-0.099
		c0-0.403-0.215-0.977-1.385-0.977c-0.785,0-1.607,0.264-2.104,0.556l-0.435-1.515c0.529-0.29,1.575-0.681,2.956-0.681
		c2.542,0,3.337,1.49,3.337,3.29L314.133,401.787L314.133,401.787z M311.839,400.03c-1.244,0-2.206,0.299-2.206,1.199
		c0,0.61,0.398,0.911,0.93,0.911c0.577,0,1.075-0.395,1.231-0.88c0.028-0.119,0.046-0.267,0.046-0.399L311.839,400.03
		L311.839,400.03z"/>
	<path fill="#FFFFFF" d="M315.35,403.632v-1.438l1.286-1.164c2.229-2.001,3.31-3.134,3.322-4.312c0-0.832-0.478-1.482-1.654-1.482
		c-0.868,0-1.634,0.428-2.159,0.823l-0.675-1.682c0.753-0.573,1.946-1.043,3.306-1.043c2.306,0,3.545,1.345,3.545,3.177
		c0,1.699-1.207,3.053-2.69,4.356l-0.931,0.781v0.027h3.828v1.956H315.35L315.35,403.632z"/>
	<path fill="#FFFFFF" d="M184.765,450.997c0,0.802,0.043,1.583,0.146,2.062h-2.4l-0.154-0.865h-0.057
		c-0.559,0.686-1.441,1.061-2.452,1.061c-1.738,0-2.762-1.269-2.762-2.635c0-2.214,1.996-3.275,5.018-3.275v-0.103
		c0-0.461-0.24-1.108-1.561-1.108c-0.869,0-1.8,0.301-2.368,0.639l-0.489-1.706c0.602-0.324,1.776-0.766,3.336-0.766
		c2.857,0,3.744,1.681,3.744,3.692V450.997L184.765,450.997z M182.195,449.013c-1.41,0-2.49,0.327-2.49,1.354
		c0,0.68,0.455,1.005,1.048,1.005c0.647,0,1.212-0.426,1.391-0.976c0.033-0.138,0.052-0.303,0.052-0.453V449.013z"/>
	<path fill="#FFFFFF" d="M187.024,450.457c0.479,0.254,1.565,0.689,2.649,0.689c1.382,0,2.081-0.663,2.081-1.505
		c0-1.142-1.112-1.647-2.269-1.647h-1.09v-1.919h1.034c0.888,0,2.016-0.347,2.016-1.306c0-0.681-0.54-1.193-1.688-1.193
		c-0.926,0-1.902,0.404-2.357,0.688l-0.551-1.929c0.69-0.439,2.041-0.861,3.523-0.861c2.42,0,3.772,1.286,3.772,2.843
		c0,1.206-0.688,2.173-2.085,2.643v0.04c1.362,0.244,2.471,1.276,2.471,2.78c0,2.001-1.771,3.475-4.665,3.475
		c-1.472,0-2.716-0.386-3.383-0.797L187.024,450.457z"/>
	<path fill="#FFFFFF" d="M184.034,356.023c0,0.8,0.032,1.589,0.141,2.062h-2.406l-0.154-0.858h-0.051
		c-0.56,0.685-1.442,1.05-2.453,1.05c-1.738,0-2.771-1.257-2.771-2.625c0-2.232,1.997-3.282,5.036-3.282v-0.103
		c0-0.45-0.249-1.1-1.568-1.1c-0.874,0-1.795,0.296-2.363,0.63l-0.494-1.701c0.602-0.337,1.777-0.77,3.337-0.77
		c2.861,0,3.75,1.682,3.75,3.692v3.003H184.034z M181.463,354.043c-1.409,0-2.49,0.329-2.49,1.343c0,0.685,0.451,1.02,1.054,1.02
		c0.644,0,1.202-0.438,1.381-0.982c0.032-0.141,0.056-0.295,0.056-0.45V354.043z"/>
	<path fill="#FFFFFF" d="M190.535,358.086v-2.719h-5.045v-1.729l4.294-6.941h3.274v6.678h1.349v1.991h-1.349v2.719H190.535
		L190.535,358.086z M190.535,353.376v-2.517c0-0.695,0.034-1.39,0.075-2.133h-0.057c-0.365,0.744-0.69,1.405-1.066,2.133
		l-1.509,2.479l-0.022,0.037L190.535,353.376L190.535,353.376z"/>
	<path fill="#FFFFFF" d="M76.589,263.29c-0.46,0.208-1.329,0.401-2.312,0.401c-2.691,0-4.411-1.654-4.411-4.275
		c0-2.435,1.663-4.426,4.769-4.426c0.682,0,1.42,0.116,1.969,0.32l-0.414,1.926c-0.299-0.131-0.765-0.253-1.441-0.253
		c-1.357,0-2.25,0.967-2.227,2.33c0,1.533,1.02,2.331,2.278,2.331c0.61,0,1.091-0.103,1.479-0.272L76.589,263.29z"/>
	<polygon fill="#FFFFFF" points="80.991,254.735 80.957,254.735 78.854,255.736 78.422,253.801 81.348,252.434 83.493,252.434 
		83.493,263.498 80.991,263.498 	"/>
	<path fill="#FFFFFF" d="M89.34,140.268c0.08,1.076,1.133,1.587,2.336,1.587c0.893,0,1.602-0.123,2.302-0.337l0.338,1.747
		c-0.846,0.338-1.884,0.527-3.007,0.527c-2.834,0-4.444-1.643-4.444-4.252c0-2.113,1.311-4.439,4.203-4.439
		c2.688,0,3.713,2.087,3.713,4.154c0,0.437-0.052,0.835-0.088,1.015L89.34,140.268L89.34,140.268z M92.376,138.501
		c0-0.629-0.272-1.683-1.461-1.683c-1.08,0-1.536,0.981-1.603,1.683H92.376z"/>
	<polygon fill="#FFFFFF" points="99.311,134.841 99.269,134.841 97.164,135.847 96.74,133.906 99.663,132.543 101.805,132.543 
		101.805,143.604 99.311,143.604 	"/>
	<path fill="#FFFFFF" d="M407.209,113.06c0.085,1.076,1.138,1.588,2.344,1.588c0.885,0,1.602-0.123,2.296-0.338l0.34,1.748
		c-0.851,0.339-1.888,0.526-3.012,0.526c-2.827,0-4.436-1.645-4.436-4.252c0-2.114,1.307-4.44,4.197-4.44
		c2.688,0,3.715,2.086,3.715,4.155c0,0.436-0.055,0.835-0.084,1.014L407.209,113.06L407.209,113.06z M410.26,111.292
		c0-0.63-0.282-1.683-1.472-1.683c-1.085,0-1.531,0.982-1.597,1.683H410.26z"/>
	<path fill="#FFFFFF" d="M413.876,116.396v-1.561l1.428-1.296c2.416-2.162,3.59-3.402,3.629-4.698c0-0.903-0.551-1.617-1.823-1.617
		c-0.954,0-1.791,0.478-2.365,0.921l-0.733-1.862c0.837-0.629,2.129-1.136,3.628-1.136c2.497,0,3.876,1.465,3.876,3.467
		c0,1.86-1.339,3.339-2.94,4.77l-1.024,0.853v0.033h4.167v2.124L413.876,116.396L413.876,116.396z"/>
	<path fill="#FFFFFF" d="M425.278,235.316v9.593c0,0.94,0.042,1.926,0.07,2.482h-2.287l-0.128-1.224H422.9
		c-0.525,0.939-1.531,1.415-2.598,1.415c-1.979,0-3.559-1.682-3.559-4.271c-0.018-2.805,1.74-4.424,3.724-4.424
		c1.024,0,1.821,0.361,2.203,0.939h0.022v-4.51H425.278L425.278,235.316z M422.694,242.598c0-0.136-0.015-0.328-0.022-0.46
		c-0.161-0.695-0.721-1.278-1.524-1.278c-1.175,0-1.79,1.053-1.79,2.367c0,1.418,0.7,2.298,1.781,2.298
		c0.743,0,1.34-0.511,1.491-1.244c0.051-0.184,0.065-0.366,0.065-0.593L422.694,242.598L422.694,242.598z"/>
	<polygon fill="#FFFFFF" points="430.342,238.632 430.302,238.632 428.19,239.638 427.769,237.693 430.694,236.335 432.836,236.335 
		432.836,247.391 430.342,247.391 	"/>
	<path fill="#FFFFFF" d="M424.386,327.972v9.604c0,0.931,0.042,1.917,0.069,2.481h-2.286l-0.127-1.227h-0.034
		c-0.525,0.935-1.529,1.415-2.598,1.415c-1.977,0-3.557-1.687-3.557-4.276c-0.018-2.81,1.739-4.421,3.721-4.421
		c1.025,0,1.824,0.357,2.204,0.935h0.023v-4.51H424.386z M421.803,335.264c0-0.142-0.016-0.328-0.024-0.46
		c-0.159-0.705-0.719-1.287-1.521-1.287c-1.174,0-1.789,1.061-1.789,2.378c0,1.404,0.698,2.288,1.779,2.288
		c0.742,0,1.339-0.508,1.489-1.236c0.051-0.198,0.066-0.376,0.066-0.596V335.264L421.803,335.264z"/>
	<path fill="#FFFFFF" d="M426.151,340.057v-1.569l1.424-1.287c2.419-2.163,3.595-3.412,3.624-4.693c0-0.908-0.546-1.621-1.82-1.621
		c-0.948,0-1.784,0.478-2.368,0.917l-0.736-1.857c0.841-0.63,2.132-1.139,3.635-1.139c2.49,0,3.871,1.462,3.871,3.474
		c0,1.856-1.339,3.336-2.939,4.769l-1.025,0.846v0.033h4.173v2.128H426.151z"/>
	<path fill="#FFFFFF" d="M424.563,408.741v9.596c0,0.931,0.044,1.917,0.071,2.484h-2.285l-0.129-1.231h-0.033
		c-0.526,0.937-1.531,1.414-2.598,1.414c-1.979,0-3.559-1.687-3.559-4.264c-0.019-2.812,1.738-4.432,3.723-4.432
		c1.023,0,1.823,0.36,2.202,0.934h0.023v-4.5L424.563,408.741L424.563,408.741z M421.98,416.025c0-0.148-0.015-0.328-0.023-0.471
		c-0.158-0.686-0.72-1.277-1.521-1.277c-1.177,0-1.792,1.061-1.792,2.375c0,1.406,0.7,2.293,1.782,2.293
		c0.739,0,1.339-0.512,1.488-1.241c0.051-0.188,0.065-0.374,0.065-0.596V416.025L421.98,416.025z"/>
	<path fill="#FFFFFF" d="M426.783,418.28c0.463,0.234,1.517,0.688,2.568,0.688c1.347,0,2.024-0.648,2.024-1.481
		c0-1.099-1.08-1.589-2.226-1.589h-1.052v-1.851h0.997c0.873-0.023,1.98-0.333,1.98-1.273c0-0.667-0.543-1.166-1.64-1.166
		c-0.902,0-1.845,0.395-2.311,0.667l-0.526-1.869c0.661-0.427,1.987-0.833,3.425-0.833c2.359,0,3.664,1.244,3.664,2.75
		c0,1.183-0.659,2.099-2.023,2.573v0.027c1.328,0.245,2.409,1.248,2.409,2.699c0,1.953-1.726,3.381-4.528,3.381
		c-1.438,0-2.642-0.375-3.29-0.784L426.783,418.28z"/>
	<path fill="#FFFFFF" d="M424.028,476.453v9.596c0,0.936,0.043,1.923,0.071,2.486h-2.288l-0.128-1.227h-0.032
		c-0.525,0.935-1.531,1.411-2.597,1.411c-1.979,0-3.558-1.688-3.558-4.272c-0.02-2.81,1.737-4.421,3.722-4.421
		c1.023,0,1.823,0.355,2.203,0.938h0.023v-4.512H424.028z M421.445,483.734c0-0.141-0.016-0.32-0.023-0.459
		c-0.159-0.696-0.72-1.272-1.522-1.272c-1.175,0-1.79,1.056-1.79,2.362c0,1.414,0.701,2.293,1.781,2.293
		c0.743,0,1.338-0.504,1.488-1.232c0.052-0.19,0.067-0.38,0.067-0.599L421.445,483.734L421.445,483.734z"/>
	<path fill="#FFFFFF" d="M430.372,488.537v-2.644h-4.905v-1.681l4.187-6.738h3.166v6.487h1.325v1.932h-1.325v2.644H430.372
		L430.372,488.537z M430.372,483.961v-2.449c0-0.665,0.028-1.347,0.075-2.062h-0.062c-0.355,0.716-0.652,1.357-1.019,2.062
		l-1.479,2.408v0.041H430.372z"/>
	<path fill="#FFFFFF" d="M424.207,554.426v9.589c0,0.937,0.043,1.931,0.07,2.493h-2.289l-0.127-1.232h-0.032
		c-0.526,0.934-1.53,1.416-2.597,1.416c-1.979,0-3.557-1.684-3.557-4.268c-0.02-2.812,1.737-4.426,3.72-4.426
		c1.025,0,1.823,0.357,2.204,0.938h0.023v-4.511L424.207,554.426L424.207,554.426z M421.624,561.708c0-0.143-0.016-0.325-0.023-0.46
		c-0.159-0.697-0.719-1.276-1.523-1.276c-1.173,0-1.789,1.056-1.789,2.359c0,1.417,0.7,2.297,1.781,2.297
		c0.742,0,1.339-0.506,1.486-1.239c0.053-0.186,0.068-0.374,0.068-0.592V561.708z"/>
	<path fill="#FFFFFF" d="M433.351,557.575h-4.287l-0.238,1.699c0.238-0.037,0.446-0.037,0.721-0.037
		c1.052,0,2.122,0.244,2.903,0.796c0.84,0.571,1.348,1.486,1.348,2.779c0,2.059-1.771,3.878-4.746,3.878
		c-1.348,0-2.476-0.303-3.078-0.631l0.452-1.937c0.498,0.246,1.498,0.55,2.506,0.55c1.07,0,2.21-0.509,2.21-1.686
		c0-1.147-0.901-1.841-3.112-1.841c-0.612,0-1.044,0.032-1.5,0.104l0.732-5.799h6.09V557.575L433.351,557.575z"/>
	<path fill="#FFFFFF" d="M423.549,620.376v9.597c0,0.931,0.043,1.912,0.071,2.485h-2.289l-0.126-1.229h-0.033
		c-0.526,0.938-1.531,1.405-2.598,1.405c-1.979,0-3.557-1.681-3.557-4.264c-0.02-2.812,1.736-4.422,3.721-4.422
		c1.025,0,1.822,0.354,2.202,0.932h0.024v-4.505H423.549z M420.965,627.655c0-0.139-0.016-0.325-0.024-0.458
		c-0.158-0.696-0.72-1.278-1.521-1.278c-1.175,0-1.791,1.061-1.791,2.369c0,1.41,0.701,2.294,1.781,2.294
		c0.743,0,1.34-0.503,1.489-1.236c0.051-0.194,0.066-0.383,0.066-0.603V627.655L420.965,627.655z"/>
	<path fill="#FFFFFF" d="M432.372,623.231c-0.287,0-0.597,0-1.005,0.037c-2.294,0.179-3.316,1.359-3.603,2.65h0.043
		c0.555-0.562,1.31-0.884,2.349-0.884c1.86,0,3.429,1.309,3.429,3.608c0,2.19-1.691,3.992-4.084,3.992
		c-2.949,0-4.392-2.188-4.392-4.826c0-2.073,0.763-3.811,1.95-4.917c1.108-1.005,2.539-1.55,4.275-1.631
		c0.479-0.04,0.78-0.04,1.039-0.02v1.989H432.372z M429.479,630.741c0.896,0,1.482-0.84,1.482-1.963
		c0-1.016-0.543-1.901-1.652-1.901c-0.697,0-1.278,0.425-1.532,0.988c-0.071,0.132-0.104,0.339-0.104,0.638
		c0.048,1.176,0.612,2.238,1.786,2.238H429.479L429.479,630.741z"/>
	<path fill="#FFFFFF" d="M352.401,670.81v9.603c0,0.93,0.033,1.914,0.065,2.481h-2.297l-0.113-1.223h-0.037
		c-0.531,0.935-1.531,1.406-2.601,1.406c-1.981,0-3.561-1.683-3.561-4.268c-0.019-2.81,1.729-4.42,3.727-4.42
		c1.023,0,1.819,0.354,2.189,0.933h0.042v-4.513H352.401L352.401,670.81z M349.817,678.093c0-0.136-0.015-0.327-0.042-0.461
		c-0.149-0.693-0.709-1.275-1.513-1.275c-1.175,0-1.786,1.061-1.786,2.368c0,1.407,0.699,2.295,1.771,2.295
		c0.749,0,1.348-0.502,1.497-1.233c0.058-0.193,0.072-0.388,0.072-0.603L349.817,678.093L349.817,678.093z"/>
	<polygon fill="#FFFFFF" points="362.084,671.831 362.084,673.464 357.527,682.896 354.778,682.896 359.341,673.991 
		359.341,673.959 354.276,673.959 354.276,671.831 	"/>
	<path fill="#FFFFFF" d="M173.228,682.051c-0.451,0.199-1.325,0.396-2.312,0.396c-2.687,0-4.402-1.658-4.402-4.277
		c0-2.429,1.668-4.428,4.76-4.428c0.684,0,1.429,0.127,1.977,0.331l-0.403,1.92c-0.314-0.133-0.766-0.252-1.451-0.252
		c-1.367,0-2.24,0.963-2.228,2.325c0,1.532,1.021,2.341,2.284,2.341c0.611,0,1.081-0.113,1.475-0.275L173.228,682.051z"/>
	<polygon fill="#FFFFFF" points="182.267,671.2 182.267,672.829 177.71,682.25 174.967,682.25 179.532,673.354 179.532,673.331 
		174.46,673.331 174.46,671.2 	"/>
	<path fill="#FFFFFF" d="M123.698,682.051c-0.46,0.199-1.328,0.396-2.312,0.396c-2.696,0-4.412-1.658-4.412-4.277
		c0-2.429,1.669-4.428,4.77-4.428c0.682,0,1.429,0.127,1.97,0.331l-0.404,1.92c-0.311-0.133-0.768-0.252-1.443-0.252
		c-1.367,0-2.25,0.963-2.235,2.325c0,1.532,1.02,2.341,2.282,2.341c0.607,0,1.086-0.113,1.477-0.275L123.698,682.051z"/>
	<path fill="#FFFFFF" d="M131.864,673.035c-0.292,0-0.592,0-1,0.032c-2.298,0.189-3.323,1.355-3.609,2.652h0.052
		c0.54-0.556,1.315-0.885,2.343-0.885c1.856,0,3.431,1.314,3.431,3.608c0,2.196-1.692,4.005-4.093,4.005
		c-2.942,0-4.389-2.2-4.389-4.84c0-2.067,0.767-3.804,1.955-4.916c1.108-1.006,2.538-1.547,4.275-1.635
		c0.47-0.027,0.78-0.027,1.034-0.01L131.864,673.035L131.864,673.035z M128.976,680.542c0.906,0,1.479-0.83,1.479-1.961
		c0-1.023-0.549-1.902-1.653-1.902c-0.695,0-1.272,0.425-1.526,0.978c-0.07,0.145-0.103,0.35-0.103,0.657
		c0.048,1.168,0.609,2.229,1.785,2.229H128.976L128.976,680.542z"/>
	<path fill="#FFFFFF" d="M74.977,678.125c-0.455,0.195-1.324,0.395-2.316,0.395c-2.683,0-4.401-1.656-4.401-4.277
		c0-2.429,1.668-4.424,4.763-4.424c0.677,0,1.429,0.123,1.979,0.33l-0.414,1.919c-0.304-0.134-0.765-0.254-1.446-0.254
		c-1.363,0-2.245,0.965-2.232,2.326c0,1.531,1.03,2.342,2.283,2.342c0.61,0,1.091-0.115,1.48-0.273L74.977,678.125z"/>
	<path fill="#FFFFFF" d="M83.462,669.409h-4.28l-0.245,1.689c0.245-0.033,0.453-0.033,0.725-0.033c1.052,0,2.119,0.24,2.899,0.804
		c0.835,0.553,1.353,1.48,1.353,2.771c0,2.062-1.775,3.881-4.75,3.881c-1.347,0-2.467-0.312-3.086-0.629l0.469-1.941
		c0.489,0.236,1.494,0.54,2.501,0.54c1.066,0,2.217-0.507,2.217-1.682c0-1.137-0.902-1.836-3.118-1.836
		c-0.616,0-1.04,0.034-1.5,0.097l0.732-5.796h6.084V669.409L83.462,669.409z"/>
	<path fill="#FFFFFF" d="M75.927,472.373c-0.46,0.201-1.33,0.386-2.312,0.386c-2.688,0-4.406-1.645-4.406-4.267
		c0-2.434,1.671-4.426,4.759-4.426c0.686,0,1.434,0.123,1.973,0.323l-0.398,1.923c-0.313-0.137-0.771-0.254-1.447-0.254
		c-1.368,0-2.25,0.966-2.231,2.326c0,1.536,1.019,2.333,2.277,2.333c0.606,0,1.087-0.098,1.484-0.271L75.927,472.373z"/>
	<path fill="#FFFFFF" d="M77.496,470.037c0.451,0.237,1.514,0.68,2.565,0.68c1.35,0,2.025-0.647,2.025-1.48
		c0-1.084-1.086-1.584-2.228-1.584h-1.062v-1.853h1.009c0.865-0.024,1.976-0.334,1.976-1.275c0-0.663-0.541-1.155-1.631-1.155
		c-0.903,0-1.86,0.392-2.317,0.665l-0.526-1.878c0.663-0.424,1.988-0.831,3.416-0.831c2.368,0,3.679,1.243,3.679,2.757
		c0,1.174-0.666,2.09-2.02,2.569v0.033c1.325,0.233,2.391,1.242,2.391,2.688c0,1.955-1.714,3.382-4.524,3.382
		c-1.423,0-2.635-0.377-3.285-0.779L77.496,470.037z"/>
	<path fill="#FFFFFF" d="M76.105,558.861c-0.461,0.203-1.329,0.388-2.312,0.388c-2.688,0-4.408-1.648-4.408-4.265
		c0-2.435,1.673-4.434,4.761-4.434c0.685,0,1.433,0.122,1.974,0.329l-0.4,1.925c-0.314-0.142-0.77-0.255-1.448-0.255
		c-1.366,0-2.249,0.958-2.231,2.321c0,1.541,1.021,2.33,2.278,2.33c0.606,0,1.086-0.091,1.485-0.259L76.105,558.861z"/>
	<path fill="#FFFFFF" d="M81.796,559.064v-2.643h-4.905v-1.682l4.186-6.738h3.167v6.484h1.324v1.936h-1.324v2.643H81.796z
		 M81.796,554.486v-2.452c0-0.664,0.023-1.346,0.078-2.06H81.81c-0.358,0.714-0.645,1.364-1.029,2.06l-1.476,2.414v0.038H81.796z"/>
	<path fill="#644F43" d="M248.064,214.035v-6.418h-1.086v-1.907h1.086v-0.319c0-1.005,0.311-2.106,1.057-2.792
		c0.649-0.613,1.552-0.835,2.299-0.835c0.576,0,1.014,0.07,1.38,0.167l-0.105,1.993c-0.218-0.066-0.491-0.112-0.834-0.112
		c-0.845,0-1.207,0.658-1.207,1.475v0.423h1.668v1.907h-1.648v6.418H248.064z"/>
	<path fill="#644F43" d="M253.256,214.035v-1.57l1.428-1.291c2.415-2.162,3.59-3.407,3.628-4.699c0-0.902-0.55-1.612-1.827-1.612
		c-0.945,0-1.778,0.47-2.359,0.912l-0.733-1.852c0.837-0.629,2.128-1.141,3.629-1.141c2.498,0,3.873,1.461,3.873,3.472
		c0,1.857-1.347,3.341-2.95,4.769l-1.009,0.851v0.027h4.163v2.133H253.256z"/>
	<path fill="#FFFFFF" d="M151.868,133.158h2.586v4.745h0.031c0.494-0.713,1.364-1.17,2.52-1.17c1.987,0,3.452,1.649,3.439,4.195
		c0,2.998-1.908,4.492-3.815,4.492c-0.972,0-1.902-0.353-2.504-1.344h-0.028l-0.104,1.165h-2.193
		c0.033-0.548,0.069-1.55,0.069-2.484V133.158L151.868,133.158z M154.454,141.699c0,0.17,0.014,0.33,0.051,0.46
		c0.164,0.701,0.767,1.226,1.513,1.226c1.108,0,1.785-0.853,1.785-2.354c0-1.291-0.572-2.311-1.785-2.311
		c-0.696,0-1.349,0.525-1.513,1.272c-0.037,0.154-0.051,0.306-0.051,0.479V141.699z"/>
	<polygon fill="#FFFFFF" points="165.024,136.475 164.981,136.475 162.878,137.48 162.454,135.545 165.377,134.173 167.52,134.173 
		167.52,145.241 165.024,145.241 	"/>
	<path fill="#FFFFFF" d="M334.979,132.087h2.593v4.745h0.033c0.492-0.715,1.357-1.17,2.517-1.17c1.989,0,3.455,1.647,3.436,4.194
		c0,2.999-1.903,4.491-3.81,4.491c-0.973,0-1.909-0.354-2.506-1.344h-0.03l-0.095,1.166h-2.203c0.04-0.551,0.066-1.551,0.066-2.487
		L334.979,132.087L334.979,132.087z M337.571,140.629c0,0.168,0.014,0.329,0.047,0.461c0.174,0.699,0.767,1.224,1.519,1.224
		c1.103,0,1.785-0.854,1.785-2.353c0-1.292-0.578-2.311-1.785-2.311c-0.697,0-1.345,0.526-1.519,1.273
		c-0.033,0.155-0.047,0.306-0.047,0.479V140.629z"/>
	<path fill="#FFFFFF" d="M344.836,144.171v-1.57l1.427-1.293c2.419-2.161,3.594-3.396,3.623-4.698c0-0.901-0.545-1.612-1.819-1.612
		c-0.958,0-1.785,0.469-2.368,0.912l-0.727-1.851c0.824-0.63,2.122-1.143,3.622-1.143c2.504,0,3.875,1.462,3.875,3.474
		c0,1.856-1.34,3.335-2.937,4.768l-1.03,0.851v0.027h4.174v2.134H344.836z"/>
	<path fill="#FFFFFF" d="M193.425,98.007h1.944v3.571h0.029c0.371-0.534,1.022-0.887,1.895-0.887c1.5,0,2.6,1.249,2.586,3.168
		c0,2.256-1.433,3.382-2.868,3.382c-0.724,0-1.436-0.27-1.878-1.011h-0.032l-0.07,0.869h-1.658c0.032-0.41,0.052-1.161,0.052-1.871
		L193.425,98.007L193.425,98.007z M195.369,104.436c0,0.127,0.016,0.243,0.04,0.342c0.122,0.53,0.576,0.926,1.142,0.926
		c0.831,0,1.339-0.643,1.339-1.767c0-0.978-0.43-1.74-1.339-1.74c-0.523,0-1.02,0.396-1.142,0.954
		c-0.024,0.121-0.04,0.233-0.04,0.362V104.436z"/>
	<path fill="#FFFFFF" d="M201.183,105.188c0.352,0.185,1.143,0.516,1.937,0.516c1.011,0,1.523-0.487,1.523-1.116
		c0-0.818-0.818-1.19-1.677-1.19h-0.791V102h0.754c0.655-0.008,1.483-0.252,1.483-0.956c0-0.501-0.406-0.869-1.232-0.869
		c-0.678,0-1.393,0.29-1.739,0.494l-0.396-1.408c0.499-0.326,1.499-0.628,2.575-0.628c1.778,0,2.769,0.932,2.769,2.075
		c0,0.887-0.498,1.574-1.531,1.935v0.028c1.001,0.173,1.807,0.93,1.807,2.023c0,1.471-1.291,2.547-3.401,2.547
		c-1.079,0-1.984-0.276-2.477-0.588L201.183,105.188z"/>
	<path fill="#644F43" d="M246.556,602.3v-6.729h-1.16v-1.997h1.16v-0.34c0-1.054,0.322-2.212,1.088-2.925
		c0.696-0.645,1.624-0.874,2.426-0.874c0.591,0,1.054,0.089,1.429,0.179l-0.107,2.087c-0.231-0.073-0.518-0.126-0.872-0.126
		c-0.895,0-1.268,0.698-1.268,1.553v0.447h1.748v1.998h-1.73v6.729h-2.713V602.3z"/>
	<polygon fill="#644F43" points="255.44,593.11 255.404,593.11 253.192,594.164 252.746,592.129 255.835,590.702 258.063,590.702 
		258.063,602.3 255.44,602.3 	"/>
	<path fill="#FFFFFF" d="M67.872,628.478c-0.387,0.186-1.114,0.326-1.942,0.326c-2.256,0-3.696-1.384-3.696-3.582
		c0-2.041,1.399-3.71,3.996-3.71c0.571,0,1.2,0.099,1.656,0.27l-0.343,1.612c-0.256-0.111-0.641-0.213-1.213-0.213
		c-1.143,0-1.885,0.813-1.871,1.954c0,1.285,0.856,1.972,1.915,1.972c0.514,0,0.913-0.086,1.24-0.229L67.872,628.478z"/>
	<path fill="#FFFFFF" d="M74.724,620.911c-0.243-0.014-0.499,0-0.844,0.028c-1.926,0.146-2.782,1.144-3.026,2.212h0.044
		c0.457-0.453,1.114-0.727,1.971-0.727c1.556,0,2.869,1.1,2.869,3.027c0,1.842-1.415,3.353-3.411,3.353
		c-2.485,0-3.697-1.841-3.697-4.054c0-1.74,0.643-3.195,1.655-4.139c0.913-0.844,2.126-1.284,3.568-1.356
		c0.399-0.041,0.671-0.028,0.871-0.015V620.911z M72.296,627.208c0.757,0,1.241-0.7,1.241-1.642c0-0.856-0.455-1.6-1.383-1.6
		c-0.586,0-1.071,0.356-1.271,0.814c-0.071,0.127-0.102,0.3-0.102,0.556c0.044,0.987,0.515,1.871,1.499,1.871H72.296z"/>
	<path fill="#FFFFFF" d="M76.991,624.011c0-0.916-0.027-1.687-0.058-2.342h1.885l0.101,0.971h0.029
		c0.513-0.728,1.312-1.126,2.326-1.126c1.526,0,2.897,1.326,2.897,3.553c0,2.539-1.613,3.738-3.169,3.738
		c-0.842,0-1.498-0.343-1.813-0.796h-0.027v3.465h-2.171V624.011z M79.162,625.652c0,0.169,0.015,0.314,0.043,0.456
		c0.142,0.586,0.642,1.028,1.27,1.028c0.942,0,1.499-0.785,1.499-1.967c0-1.117-0.5-1.956-1.47-1.956
		c-0.614,0-1.157,0.453-1.298,1.096c-0.029,0.117-0.043,0.258-0.043,0.386L79.162,625.652L79.162,625.652z"/>
	<path fill="#FFFFFF" d="M91.337,626.965c0,0.656,0.028,1.3,0.114,1.683h-1.956l-0.127-0.698h-0.044
		c-0.456,0.558-1.171,0.855-1.998,0.855c-1.412,0-2.255-1.026-2.255-2.14c0-1.813,1.626-2.669,4.096-2.669v-0.086
		c0-0.375-0.199-0.898-1.269-0.898c-0.714,0-1.471,0.241-1.929,0.512l-0.398-1.384c0.485-0.272,1.441-0.628,2.711-0.628
		c2.327,0,3.055,1.369,3.055,3.009V626.965z M89.238,625.352c-1.142,0-2.026,0.269-2.026,1.099c0,0.558,0.371,0.829,0.854,0.829
		c0.53,0,0.986-0.358,1.129-0.799c0.028-0.117,0.043-0.243,0.043-0.373V625.352L89.238,625.352z"/>
	<path fill="#FFFFFF" d="M71.746,351.869c-0.45,0.217-1.301,0.384-2.269,0.384c-2.635,0-4.318-1.618-4.318-4.168
		c0-2.383,1.634-4.335,4.669-4.335c0.668,0,1.4,0.119,1.935,0.317l-0.4,1.883c-0.301-0.133-0.75-0.248-1.417-0.248
		c-1.334,0-2.202,0.949-2.185,2.283c0,1.485,1,2.284,2.234,2.284c0.602,0,1.067-0.1,1.451-0.266L71.746,351.869z"/>
	<path fill="#FFFFFF" d="M72.848,352.086v-1.534l1.384-1.25c2.386-2.135,3.535-3.353,3.553-4.618c0-0.883-0.517-1.584-1.769-1.584
		c-0.935,0-1.753,0.466-2.319,0.883l-0.717-1.799c0.802-0.618,2.084-1.118,3.537-1.118c2.467,0,3.802,1.433,3.802,3.384
		c0,1.833-1.3,3.285-2.884,4.685l-1.001,0.834v0.033h4.104v2.083H72.848L72.848,352.086z"/>
	<path fill="#FFFFFF" d="M89.194,350.119c0,0.767,0.033,1.517,0.135,1.967h-2.287l-0.15-0.815h-0.049
		c-0.534,0.65-1.368,0.999-2.336,0.999c-1.651,0-2.636-1.2-2.636-2.5c0-2.118,1.901-3.119,4.788-3.119v-0.1
		c0-0.45-0.234-1.068-1.484-1.068c-0.835,0-1.718,0.285-2.253,0.618l-0.466-1.635c0.566-0.317,1.684-0.733,3.169-0.733
		c2.721,0,3.569,1.599,3.569,3.533V350.119z M86.743,348.234c-1.335,0-2.368,0.317-2.368,1.284c0,0.65,0.433,0.967,1,0.967
		c0.617,0,1.151-0.417,1.318-0.933c0.033-0.134,0.05-0.284,0.05-0.434V348.234z"/>
	<path fill="#FFFFFF" d="M71.39,408.658c-0.45,0.217-1.302,0.385-2.268,0.385c-2.636,0-4.321-1.618-4.321-4.171
		c0-2.386,1.635-4.338,4.67-4.338c0.667,0,1.401,0.119,1.935,0.317l-0.4,1.885c-0.3-0.132-0.75-0.25-1.416-0.25
		c-1.335,0-2.202,0.95-2.187,2.284c0,1.484,1.001,2.287,2.235,2.287c0.601,0,1.067-0.1,1.451-0.268L71.39,408.658z"/>
	<path fill="#FFFFFF" d="M72.489,408.875v-1.534l1.386-1.251c2.385-2.134,3.534-3.353,3.552-4.619c0-0.885-0.517-1.585-1.769-1.585
		c-0.935,0-1.752,0.467-2.318,0.883l-0.717-1.802c0.802-0.616,2.085-1.116,3.537-1.116c2.468,0,3.802,1.435,3.802,3.386
		c0,1.834-1.3,3.287-2.885,4.688l-1,0.832v0.034h4.102v2.085H72.489L72.489,408.875z"/>
	<path fill="#FFFFFF" d="M82.048,397.032h2.536v4.654h0.033c0.483-0.7,1.335-1.15,2.47-1.15c1.95,0,3.37,1.617,3.352,4.119
		c0,2.938-1.851,4.404-3.72,4.404c-0.952,0-1.885-0.351-2.451-1.318h-0.035l-0.099,1.134h-2.152
		c0.034-0.531,0.066-1.517,0.066-2.435V397.032z M84.584,405.404c0,0.168,0.017,0.317,0.05,0.452
		c0.168,0.667,0.751,1.201,1.484,1.201c1.085,0,1.752-0.835,1.752-2.302c0-1.269-0.567-2.269-1.752-2.269
		c-0.685,0-1.317,0.516-1.484,1.251c-0.033,0.148-0.05,0.3-0.05,0.467V405.404z"/>
	<rect x="226.038" y="146.83" fill="#F39208" width="0.002" height="3.552"/>
	<path fill="#F9AE0A" d="M237.409,101.808c0-0.494,0.028-1.004,0.063-1.549h-0.045c-0.273,0.545-0.491,1.025-0.775,1.549
		l-1.109,1.817v0.029h1.866V101.808z"/>
	<path fill="#F9AE0A" d="M231.022,103.938c0-0.977-0.443-1.74-1.349-1.74c-0.526,0-1.006,0.396-1.142,0.954
		c-0.021,0.121-0.035,0.234-0.035,0.362v0.922c0,0.126,0.014,0.244,0.035,0.342c0.135,0.53,0.576,0.926,1.142,0.926
		C230.51,105.705,231.022,105.062,231.022,103.938"/>
	<path fill="#F9AE0A" d="M229.594,126.119h19.389V79.194h-33.821v46.925h10.88v0.042h3.552L229.594,126.119L229.594,126.119z
		 M233.72,103.849l3.152-5.076h2.387v4.881h0.997v1.461h-0.997v1.983h-1.849v-1.983h-3.689L233.72,103.849L233.72,103.849z
		 M228.253,106.229h-0.032l-0.071,0.869h-1.658c0.032-0.409,0.057-1.16,0.057-1.87v-7.221h1.949v3.571h0.024
		c0.372-0.535,1.021-0.888,1.891-0.888c1.504,0,2.607,1.25,2.591,3.17c0,2.256-1.437,3.382-2.864,3.382
		C229.405,107.241,228.694,106.971,228.253,106.229"/>
	<polygon fill="#F39208" points="286.079,146.83 229.594,146.83 229.594,126.161 226.041,126.161 226.041,146.83 226.041,150.381 
		226.041,150.387 229.594,150.387 229.594,150.381 286.079,150.381 286.079,150.384 289.631,150.384 289.631,126.161 
		286.079,126.161 	"/>
	<path fill="#1E1E1C" d="M316.676,126.178l0.141-46.924h-50.488l-0.094,46.837l19.846,0.035v0.035h3.553v-0.03L316.676,126.178z
		 M293.132,105.175c0.348,0.167,1.062,0.384,1.774,0.384c0.757,0,1.573-0.363,1.573-1.194c0-0.809-0.64-1.302-2.213-1.302
		c-0.436,0-0.735,0.022-1.066,0.074l0.523-4.12h4.315v1.508h-3.035l-0.171,1.208c0.171-0.024,0.317-0.024,0.51-0.024
		c0.745,0,1.502,0.167,2.055,0.567c0.597,0.397,0.961,1.052,0.961,1.968c0,1.46-1.256,2.749-3.363,2.749
		c-0.962,0-1.755-0.22-2.188-0.445L293.132,105.175z M287.431,106.042h-0.03l-0.076,0.819h-1.553
		c0.023-0.386,0.051-1.093,0.051-1.762v-6.804h1.832v3.364h0.022c0.351-0.503,0.967-0.835,1.789-0.835
		c1.405,0,2.445,1.176,2.436,2.984c0,2.126-1.353,3.185-2.705,3.185C288.505,106.995,287.848,106.743,287.431,106.042"/>
	<path fill="#1E1E1C" d="M288.77,102.243c-0.496,0-0.963,0.374-1.076,0.9c-0.029,0.114-0.039,0.219-0.039,0.34v0.87
		c0,0.121,0.01,0.229,0.039,0.324c0.114,0.498,0.543,0.872,1.076,0.872c0.779,0,1.261-0.608,1.261-1.667
		C290.03,102.964,289.622,102.243,288.77,102.243"/>
	<path fill="#1E1E1C" d="M444.447,647.634h-40.083v25.677h40.083V647.634z M415.812,665.783l-0.071-0.846h-0.037
		c-0.357,0.644-1.072,0.979-1.823,0.979c-1.38,0-2.487-1.18-2.487-2.99c-0.012-1.954,1.214-3.095,2.608-3.095
		c0.726,0,1.273,0.262,1.536,0.653h0.022v-3.154h1.812v6.715c0,0.668,0.022,1.345,0.048,1.738H415.812L415.812,665.783z
		 M421.54,665.916c-2.072,0-3.085-1.538-3.085-3.385c0-1.451,0.535-2.669,1.379-3.453c0.765-0.703,1.775-1.073,2.979-1.131
		c0.334-0.037,0.562-0.024,0.728-0.013v1.393c-0.203-0.009-0.417,0-0.702,0.024c-1.608,0.118-2.322,0.952-2.524,1.846h0.034
		c0.383-0.38,0.93-0.609,1.644-0.609c1.298,0,2.396,0.919,2.396,2.528C424.386,664.651,423.204,665.916,421.54,665.916
		 M428.777,665.916c-0.701,0-1.248-0.288-1.512-0.668h-0.025v2.893h-1.81v-6.228c0-0.763-0.023-1.403-0.047-1.953h1.573l0.081,0.812
		h0.024c0.429-0.609,1.097-0.941,1.94-0.941c1.275,0,2.419,1.106,2.419,2.963C431.423,664.912,430.075,665.916,428.777,665.916
		 M435.756,665.201h-0.037c-0.38,0.462-0.974,0.715-1.665,0.715c-1.179,0-1.881-0.86-1.881-1.788c0-1.514,1.357-2.229,3.417-2.229
		v-0.072c0-0.308-0.167-0.748-1.06-0.748c-0.597,0-1.228,0.203-1.609,0.429l-0.333-1.155c0.405-0.227,1.202-0.522,2.264-0.522
		c1.94,0,2.548,1.141,2.548,2.512v2.036c0,0.548,0.025,1.081,0.095,1.404h-1.631L435.756,665.201z"/>
	<path fill="#1E1E1C" d="M428.36,661.245c-0.511,0-0.964,0.383-1.084,0.916c-0.021,0.095-0.036,0.218-0.036,0.323v0.798
		c0,0.143,0.015,0.262,0.036,0.382c0.12,0.487,0.535,0.858,1.061,0.858c0.786,0,1.252-0.655,1.252-1.645
		C429.589,661.946,429.172,661.245,428.36,661.245"/>
	<path fill="#0653A1" d="M414.478,684.094c-0.834,0-1.249,0.736-1.249,1.654c0,0.976,0.486,1.594,1.238,1.594
		c0.523,0,0.95-0.355,1.059-0.866c0.024-0.119,0.036-0.264,0.036-0.405v-0.763c0-0.108,0-0.226-0.023-0.334
		C415.43,684.485,415.036,684.094,414.478,684.094"/>
	<path fill="#1E1E1C" d="M433.958,663.948c0,0.467,0.309,0.692,0.714,0.692c0.44,0,0.821-0.298,0.94-0.668
		c0.022-0.095,0.036-0.2,0.036-0.309v-0.632C434.697,663.032,433.958,663.259,433.958,663.948"/>
	<path fill="#1E1E1C" d="M414.478,661.222c-0.834,0-1.249,0.736-1.249,1.653c0,0.977,0.486,1.597,1.238,1.597
		c0.523,0,0.95-0.358,1.059-0.87c0.024-0.117,0.036-0.26,0.036-0.403v-0.763c0-0.108,0-0.228-0.023-0.332
		C415.43,661.615,415.036,661.222,414.478,661.222"/>
	<path fill="#1E1E1C" d="M421.396,661.875c-0.489,0-0.895,0.297-1.06,0.679c-0.059,0.107-0.084,0.251-0.084,0.465
		c0.036,0.823,0.428,1.561,1.25,1.561h0.012c0.631,0,1.037-0.585,1.037-1.371C422.551,662.496,422.17,661.875,421.396,661.875"/>
	<path fill="#0653A1" d="M435.459,684.094c-0.49,0-0.941,0.371-1.062,0.894c-0.023,0.108-0.036,0.213-0.036,0.333v0.856
		c0,0.119,0.013,0.228,0.036,0.322c0.12,0.478,0.536,0.857,1.062,0.857c0.771,0,1.25-0.597,1.25-1.643
		C436.709,684.81,436.305,684.094,435.459,684.094"/>
	<path fill="#0653A1" d="M428.36,684.115c-0.511,0-0.964,0.383-1.084,0.919c-0.021,0.094-0.036,0.215-0.036,0.322v0.799
		c0,0.143,0.015,0.262,0.036,0.38c0.12,0.49,0.535,0.857,1.061,0.857c0.786,0,1.252-0.655,1.252-1.644
		C429.589,684.818,429.172,684.115,428.36,684.115"/>
	<path fill="#0653A1" d="M404.363,698.988h40.084v-25.679h-40.084V698.988z M415.812,688.654l-0.071-0.845h-0.037
		c-0.357,0.644-1.072,0.975-1.823,0.975c-1.38,0-2.487-1.176-2.487-2.986c-0.012-1.956,1.216-3.097,2.608-3.097
		c0.726,0,1.274,0.264,1.536,0.655h0.022v-3.154h1.812v6.716c0,0.663,0.022,1.346,0.049,1.736H415.812z M421.54,688.784
		c-2.072,0-3.085-1.534-3.085-3.38c0-1.454,0.535-2.67,1.379-3.455c0.765-0.702,1.775-1.071,2.979-1.129
		c0.334-0.037,0.562-0.025,0.728-0.015v1.396c-0.203-0.013-0.417,0-0.702,0.022c-1.608,0.118-2.322,0.951-2.525,1.847h0.035
		c0.381-0.382,0.93-0.608,1.644-0.608c1.298,0,2.396,0.919,2.396,2.525C424.386,687.521,423.204,688.784,421.54,688.784
		 M428.778,688.784c-0.702,0-1.249-0.286-1.513-0.665h-0.025v2.896h-1.81v-6.229c0-0.762-0.023-1.406-0.047-1.954h1.573l0.081,0.812
		h0.024c0.429-0.609,1.097-0.943,1.94-0.943c1.275,0,2.419,1.108,2.419,2.964C431.423,687.783,430.076,688.784,428.778,688.784
		 M435.887,688.784c-0.68,0-1.346-0.248-1.751-0.939h-0.022l-0.071,0.81h-1.537c0.021-0.381,0.048-1.083,0.048-1.736v-6.716h1.81
		v3.32h0.024c0.346-0.498,0.952-0.821,1.762-0.821c1.393,0,2.406,1.156,2.396,2.941
		C438.544,687.739,437.222,688.784,435.887,688.784"/>
	<path fill="#0653A1" d="M421.396,684.748c-0.489,0-0.895,0.298-1.06,0.679c-0.059,0.107-0.084,0.25-0.084,0.463
		c0.036,0.823,0.428,1.563,1.25,1.563h0.012c0.631,0,1.037-0.585,1.037-1.373C422.551,685.369,422.17,684.748,421.396,684.748"/>
	<path fill="#FFFFFF" d="M417.371,657.33h-1.812v3.152h-0.022c-0.262-0.391-0.811-0.653-1.536-0.653
		c-1.393,0-2.619,1.141-2.608,3.095c0,1.812,1.108,2.99,2.487,2.99c0.751,0,1.466-0.335,1.824-0.979h0.035l0.072,0.846h1.608
		c-0.025-0.393-0.049-1.07-0.049-1.738V657.33z M415.561,663.199c0,0.144-0.014,0.288-0.036,0.403
		c-0.107,0.514-0.535,0.87-1.058,0.87c-0.752,0-1.239-0.62-1.239-1.597c0-0.915,0.416-1.653,1.249-1.653
		c0.56,0,0.951,0.393,1.06,0.882c0.022,0.104,0.022,0.224,0.022,0.334v0.761H415.561z"/>
	<path fill="#FFFFFF" d="M421.989,660.587c-0.714,0-1.262,0.229-1.643,0.609h-0.036c0.203-0.894,0.918-1.724,2.526-1.846
		c0.285-0.024,0.499-0.035,0.702-0.024v-1.393c-0.166-0.012-0.394-0.023-0.729,0.014c-1.202,0.058-2.214,0.427-2.978,1.131
		c-0.844,0.785-1.38,2.001-1.38,3.454c0,1.847,1.012,3.383,3.085,3.383c1.665,0,2.847-1.263,2.847-2.799
		C424.386,661.506,423.288,660.587,421.989,660.587 M421.514,664.58h-0.012c-0.823,0-1.214-0.735-1.25-1.559
		c0-0.214,0.025-0.359,0.084-0.465c0.164-0.382,0.57-0.679,1.06-0.679c0.774,0,1.154,0.62,1.154,1.332
		C422.55,663.995,422.146,664.58,421.514,664.58"/>
	<path fill="#FFFFFF" d="M429.004,659.831c-0.844,0-1.511,0.33-1.94,0.939h-0.024l-0.081-0.812h-1.573
		c0.022,0.549,0.047,1.189,0.047,1.952v6.229h1.81v-2.894h0.025c0.263,0.382,0.81,0.668,1.513,0.668c1.297,0,2.644-1.002,2.644-3.12
		C431.423,660.937,430.278,659.831,429.004,659.831 M428.337,664.522c-0.523,0-0.939-0.371-1.06-0.86
		c-0.022-0.118-0.037-0.239-0.037-0.382v-0.797c0-0.105,0.015-0.228,0.037-0.322c0.12-0.535,0.571-0.918,1.083-0.918
		c0.811,0,1.229,0.703,1.229,1.633C429.589,663.865,429.123,664.522,428.337,664.522"/>
	<path fill="#FFFFFF" d="M437.399,664.377v-2.036c0-1.372-0.608-2.511-2.548-2.511c-1.062,0-1.858,0.296-2.264,0.521l0.333,1.156
		c0.381-0.226,1.014-0.429,1.609-0.429c0.892,0,1.059,0.44,1.059,0.748v0.072c-2.06,0-3.417,0.716-3.417,2.229
		c0,0.928,0.702,1.787,1.881,1.787c0.691,0,1.285-0.253,1.666-0.714h0.035l0.108,0.581h1.632
		C437.425,665.459,437.399,664.925,437.399,664.377 M435.649,663.662c0,0.11-0.016,0.216-0.037,0.311
		c-0.119,0.368-0.499,0.666-0.939,0.666c-0.405,0-0.714-0.226-0.714-0.691c0-0.688,0.738-0.916,1.69-0.916V663.662z"/>
	<path fill="#FFFFFF" d="M417.371,680.202h-1.812v3.152h-0.022c-0.262-0.392-0.811-0.655-1.536-0.655
		c-1.393,0-2.619,1.143-2.608,3.097c0,1.811,1.108,2.988,2.487,2.988c0.751,0,1.466-0.333,1.824-0.977h0.035l0.072,0.846h1.608
		c-0.025-0.392-0.049-1.072-0.049-1.737V680.202z M415.561,686.072c0,0.143-0.014,0.287-0.036,0.405
		c-0.107,0.511-0.535,0.867-1.058,0.867c-0.752,0-1.239-0.619-1.239-1.596c0-0.916,0.416-1.654,1.249-1.654
		c0.56,0,0.951,0.393,1.06,0.882c0.022,0.108,0.022,0.225,0.022,0.334v0.762H415.561z"/>
	<path fill="#FFFFFF" d="M421.989,683.461c-0.714,0-1.262,0.227-1.643,0.608h-0.036c0.203-0.896,0.918-1.727,2.526-1.847
		c0.285-0.022,0.499-0.035,0.702-0.022v-1.396c-0.166-0.01-0.394-0.021-0.729,0.017c-1.202,0.058-2.214,0.425-2.978,1.129
		c-0.844,0.785-1.38,1.999-1.38,3.455c0,1.844,1.012,3.38,3.085,3.38c1.665,0,2.847-1.263,2.847-2.797
		C424.386,684.38,423.288,683.461,421.989,683.461 M421.514,687.453h-0.012c-0.823,0-1.214-0.738-1.25-1.562
		c0-0.215,0.025-0.357,0.084-0.463c0.164-0.382,0.57-0.68,1.06-0.68c0.774,0,1.154,0.622,1.154,1.333
		C422.55,686.868,422.146,687.453,421.514,687.453"/>
	<path fill="#FFFFFF" d="M429.004,682.701c-0.844,0-1.511,0.334-1.94,0.943h-0.024l-0.081-0.812h-1.573
		c0.022,0.548,0.047,1.192,0.047,1.954v6.229h1.81v-2.896h0.025c0.263,0.38,0.81,0.665,1.513,0.665c1.297,0,2.644-1.001,2.644-3.119
		C431.423,683.807,430.278,682.701,429.004,682.701 M428.337,687.392c-0.523,0-0.939-0.367-1.06-0.858
		c-0.022-0.117-0.037-0.237-0.037-0.38v-0.8c0-0.106,0.015-0.227,0.037-0.32c0.12-0.537,0.571-0.919,1.083-0.919
		c0.811,0,1.229,0.703,1.229,1.634C429.589,686.735,429.123,687.392,428.337,687.392"/>
	<path fill="#FFFFFF" d="M436.148,682.701c-0.809,0-1.416,0.323-1.761,0.821h-0.025v-3.32h-1.809v6.716
		c0,0.653-0.025,1.355-0.049,1.736h1.537l0.071-0.81h0.022c0.404,0.693,1.072,0.939,1.752,0.939c1.334,0,2.656-1.045,2.656-3.143
		C438.556,683.857,437.541,682.701,436.148,682.701 M435.459,687.357c-0.525,0-0.941-0.382-1.062-0.858
		c-0.023-0.094-0.036-0.202-0.036-0.322v-0.857c0-0.119,0.013-0.225,0.036-0.333c0.12-0.522,0.571-0.894,1.062-0.894
		c0.846,0,1.25,0.716,1.25,1.621C436.709,686.759,436.231,687.357,435.459,687.357"/>
	<g opacity="0.2">
		<g>
			<g>
				<defs>
					<rect id="SVGID_3_" x="372.797" y="149.647" width="25.413" height="35.132"/>
				</defs>
				<clipPath id="SVGID_4_">
					<use xlink:href="#SVGID_3_"  overflow="visible"/>
				</clipPath>
				<rect x="372.797" y="149.647" clip-path="url(#SVGID_4_)" fill="#1E1E1C" width="25.413" height="35.132"/>
			</g>
		</g>
	</g>
</g>
</svg>
