<?xml version="1.0" encoding="utf-8"?>
<!-- Generator: Adobe Illustrator 15.1.0, SVG Export Plug-In . SVG Version: 6.00 Build 0)  -->
<!DOCTYPE svg PUBLIC "-//W3C//DTD SVG 1.1//EN" "http://www.w3.org/Graphics/SVG/1.1/DTD/svg11.dtd">
<svg version="1.1" id="Capa_1" xmlns="http://www.w3.org/2000/svg" xmlns:xlink="http://www.w3.org/1999/xlink" x="0px" y="0px"
	 width="499.475px" height="778.388px" viewBox="0 0 499.475 778.388" enable-background="new 0 0 499.475 778.388"
	 xml:space="preserve">
<g opacity="0.2">
	<g>
		<defs>
			<rect id="SVGID_1_" x="76.369" y="78.118" width="354.034" height="687.971"/>
		</defs>
		<clipPath id="SVGID_2_">
			<use xlink:href="#SVGID_1_"  overflow="visible"/>
		</clipPath>
		<polygon clip-path="url(#SVGID_2_)" fill-rule="evenodd" clip-rule="evenodd" fill="#1E1E1C" points="195.141,766.089 
			308.888,766.089 308.888,704.417 430.403,704.417 430.403,162.63 327.158,162.63 327.158,78.119 309.803,78.119 309.803,106.44 
			212.04,106.44 212.04,78.119 180.524,78.119 180.524,164.916 76.369,164.916 76.369,703.964 195.141,703.964 		"/>
	</g>
</g>
<rect x="12.899" y="10.274" fill="#0653A1" width="95.191" height="144.204"/>
<rect x="112.744" y="10.386" fill="#F9AE0A" width="56.628" height="143.967"/>
<polygon fill="#F9AE0A" points="203.791,67.739 173.949,67.773 173.949,10.274 203.936,10.274 "/>
<rect x="337.265" y="10.376" fill="#1E1E1C" width="55.831" height="142.859"/>
<rect x="439.767" y="156.256" fill="#F9AE0A" width="48.852" height="104.381"/>
<rect x="439.767" y="265.12" fill="#F9AE0A" width="48.852" height="111.756"/>
<rect x="439.767" y="381.454" fill="#F9AE0A" width="48.852" height="78.186"/>
<rect x="439.767" y="464.238" fill="#F9AE0A" width="48.852" height="76.641"/>
<rect x="439.767" y="545.458" fill="#5E356C" width="48.852" height="109.693"/>
<rect x="439.767" y="659.701" fill="#5E356C" width="48.852" height="40.82"/>
<rect x="12.887" y="159.116" fill="#E63223" width="53.21" height="141.275"/>
<rect x="12.879" y="375.886" fill="#068978" width="52.992" height="65.862"/>
<rect x="12.879" y="305.462" fill="#068978" width="52.992" height="65.847"/>
<rect x="12.87" y="446.33" fill="#0653A1" width="53.101" height="81.223"/>
<rect x="12.87" y="532.148" fill="#E63223" width="53.21" height="116.914"/>
<rect x="12.965" y="704.945" fill="#F9AE0A" width="53.105" height="62.807"/>
<rect x="12.748" y="653.693" fill="#1E1E1C" width="53.214" height="46.67"/>
<rect x="70.705" y="713.927" fill="#068978" width="56.323" height="54.012"/>
<rect x="131.607" y="713.777" fill="#068978" width="54.086" height="54.338"/>
<rect x="209.465" y="241.956" fill="#E63223" width="83.31" height="317.96"/>
<rect x="297.353" y="284.32" fill="#E63223" width="66.735" height="234.156"/>
<rect x="138.149" y="406.634" fill="#E63223" width="66.736" height="112.061"/>
<rect x="138.149" y="284.265" fill="#0653A1" width="66.736" height="117.643"/>
<rect x="318.101" y="713.722" fill="#0653A1" width="117.189" height="54.143"/>
<polygon fill="#1E1E1C" points="454.906,10.345 452.271,10.345 397.821,10.345 397.821,87.876 439.766,87.876 439.766,109.34 
	439.766,118.423 439.766,147.094 397.015,147.094 397.015,151.783 488.618,151.783 488.618,151.666 488.618,147.094 
	488.618,118.444 488.69,118.444 488.69,10.345 "/>
<path fill="#FFFFFF" d="M251.484,401.412c0,0.873,0.034,1.734,0.148,2.246h-2.606l-0.172-0.924h-0.053
	c-0.608,0.74-1.573,1.135-2.663,1.135c-1.891,0-3.023-1.371-3.023-2.846c0-2.426,2.178-3.561,5.469-3.561v-0.121
	c0-0.494-0.264-1.203-1.688-1.203c-0.953,0-1.964,0.322-2.573,0.691l-0.533-1.855c0.649-0.361,1.924-0.832,3.623-0.832
	c3.096,0,4.072,1.826,4.072,4.021V401.412z M248.686,399.263c-1.521,0-2.71,0.367-2.71,1.459c0,0.746,0.5,1.115,1.143,1.115
	c0.712,0,1.316-0.479,1.506-1.062c0.046-0.168,0.062-0.332,0.062-0.5V399.263z"/>
<polygon fill="#FFFFFF" points="256.64,393.853 256.606,393.853 254.24,394.974 253.763,392.808 257.06,391.281 259.443,391.281 
	259.443,403.658 256.64,403.658 "/>
<path fill="#FFFFFF" d="M329.459,404.587c0,0.877,0.033,1.74,0.148,2.256H327l-0.166-0.941h-0.068
	c-0.598,0.742-1.55,1.143-2.653,1.143c-1.89,0-3.01-1.373-3.01-2.85c0-2.418,2.171-3.561,5.461-3.561v-0.121
	c0-0.492-0.263-1.193-1.692-1.193c-0.961,0-1.966,0.322-2.573,0.678l-0.529-1.85c0.645-0.355,1.923-0.832,3.612-0.832
	c3.107,0,4.078,1.82,4.078,4.021V404.587z M326.656,402.439c-1.521,0-2.697,0.365-2.697,1.465c0,0.746,0.487,1.115,1.137,1.115
	c0.706,0,1.313-0.484,1.505-1.076c0.035-0.146,0.056-0.326,0.056-0.488V402.439z"/>
<path fill="#FFFFFF" d="M330.946,406.843v-1.758l1.573-1.424c2.723-2.445,4.044-3.83,4.061-5.271c0-1.016-0.585-1.811-2.021-1.811
	c-1.063,0-1.998,0.523-2.641,1.006l-0.824-2.055c0.92-0.701,2.379-1.275,4.04-1.275c2.818,0,4.334,1.643,4.334,3.883
	c0,2.078-1.476,3.732-3.289,5.326l-1.138,0.955v0.033h4.68v2.391H330.946z"/>
<path fill="#FFFFFF" d="M171.329,464.736c0,0.982,0.053,1.936,0.178,2.521h-2.934l-0.189-1.057h-0.069
	c-0.683,0.838-1.762,1.297-2.997,1.297c-2.125,0-3.376-1.551-3.376-3.221c0-2.707,2.44-4.004,6.133-4.004v-0.125
	c0-0.564-0.293-1.355-1.907-1.355c-1.063,0-2.2,0.367-2.895,0.781l-0.598-2.086c0.735-0.396,2.171-0.936,4.078-0.936
	c3.492,0,4.576,2.055,4.576,4.514V464.736z M168.189,462.312c-1.723,0-3.044,0.402-3.044,1.656c0,0.83,0.556,1.227,1.28,1.227
	c0.792,0,1.482-0.521,1.701-1.193c0.04-0.168,0.063-0.369,0.063-0.553V462.312z"/>
<path fill="#FFFFFF" d="M174.092,464.076c0.585,0.311,1.913,0.844,3.238,0.844c1.689,0,2.544-0.811,2.544-1.84
	c0-1.395-1.36-2.014-2.773-2.014h-1.332v-2.344h1.263c1.086,0,2.464-0.424,2.464-1.596c0-0.832-0.66-1.459-2.062-1.459
	c-1.132,0-2.325,0.494-2.882,0.84l-0.673-2.359c0.844-0.537,2.494-1.051,4.307-1.051c2.958,0,4.611,1.572,4.611,3.473
	c0,1.475-0.842,2.658-2.549,3.232v0.049c1.665,0.297,3.021,1.559,3.021,3.398c0,2.445-2.165,4.248-5.703,4.248
	c-1.798,0-3.32-0.473-4.135-0.975L174.092,464.076z"/>
<path fill="#FFFFFF" d="M170.436,348.649c0,0.977,0.04,1.942,0.172,2.521h-2.941l-0.188-1.05h-0.062
	c-0.685,0.838-1.763,1.285-2.999,1.285c-2.125,0-3.388-1.537-3.388-3.208c0-2.729,2.441-4.012,6.156-4.012v-0.126
	c0-0.55-0.304-1.344-1.917-1.344c-1.068,0-2.194,0.362-2.889,0.77l-0.603-2.079c0.735-0.413,2.171-0.941,4.078-0.941
	c3.498,0,4.583,2.055,4.583,4.513V348.649z M167.294,346.228c-1.723,0-3.044,0.402-3.044,1.642c0,0.837,0.551,1.246,1.287,1.246
	c0.787,0,1.47-0.535,1.688-1.201c0.04-0.172,0.069-0.361,0.069-0.55V346.228z"/>
<path fill="#FFFFFF" d="M178.383,351.17v-3.324h-6.167v-2.113l5.249-8.484h4.002v8.163h1.648v2.434h-1.648v3.324H178.383z
	 M178.383,345.413v-3.077c0-0.85,0.041-1.699,0.092-2.607h-0.069c-0.447,0.909-0.845,1.718-1.304,2.607l-1.844,3.031l-0.028,0.045
	H178.383z"/>
<path fill="#FFFFFF" d="M39.103,235.298c-0.563,0.253-1.625,0.49-2.826,0.49c-3.291,0-5.393-2.022-5.393-5.226
	c0-2.976,2.033-5.41,5.83-5.41c0.833,0,1.734,0.142,2.406,0.391l-0.506,2.354c-0.366-0.16-0.936-0.31-1.763-0.31
	c-1.658,0-2.75,1.182-2.721,2.848c0,1.874,1.246,2.849,2.785,2.849c0.746,0,1.333-0.126,1.809-0.333L39.103,235.298z"/>
<polygon fill="#FFFFFF" points="44.484,224.841 44.443,224.841 41.871,226.065 41.343,223.699 44.92,222.028 47.543,222.028 
	47.543,235.552 44.484,235.552 "/>
<path fill="#FFFFFF" d="M54.689,84.924c0.098,1.315,1.384,1.94,2.855,1.94c1.091,0,1.958-0.149,2.814-0.412l0.413,2.135
	c-1.034,0.414-2.303,0.644-3.676,0.644c-3.463,0-5.432-2.009-5.432-5.198c0-2.583,1.602-5.426,5.138-5.426
	c3.286,0,4.538,2.55,4.538,5.077c0,0.535-0.063,1.021-0.108,1.241H54.689z M58.4,82.765c0-0.769-0.333-2.056-1.786-2.056
	c-1.32,0-1.877,1.199-1.959,2.056H58.4z"/>
<polygon fill="#FFFFFF" points="66.876,78.291 66.825,78.291 64.252,79.521 63.735,77.148 67.307,75.483 69.926,75.483 
	69.926,89.002 66.876,89.002 "/>
<path fill="#FFFFFF" d="M443.229,51.667c0.104,1.316,1.391,1.941,2.866,1.941c1.08,0,1.957-0.15,2.804-0.413l0.417,2.136
	c-1.04,0.415-2.308,0.644-3.682,0.644c-3.455,0-5.42-2.01-5.42-5.197c0-2.584,1.596-5.428,5.129-5.428
	c3.286,0,4.542,2.55,4.542,5.079c0,0.533-0.069,1.021-0.104,1.239H443.229z M446.958,49.507c0-0.77-0.346-2.057-1.798-2.057
	c-1.327,0-1.873,1.201-1.953,2.057H446.958z"/>
<path fill="#FFFFFF" d="M451.378,55.745v-1.907l1.746-1.584c2.952-2.643,4.388-4.159,4.435-5.743c0-1.104-0.673-1.976-2.229-1.976
	c-1.166,0-2.188,0.584-2.89,1.125l-0.896-2.275c1.022-0.769,2.602-1.389,4.434-1.389c3.051,0,4.738,1.791,4.738,4.238
	c0,2.274-1.637,4.082-3.595,5.83l-1.252,1.043v0.041h5.093v2.596H451.378z"/>
<path fill="#FFFFFF" d="M465.315,201.105v11.726c0,1.15,0.052,2.355,0.086,3.034h-2.796l-0.156-1.495h-0.04
	c-0.642,1.148-1.872,1.729-3.176,1.729c-2.418,0-4.348-2.056-4.348-5.221c-0.022-3.429,2.126-5.409,4.55-5.409
	c1.253,0,2.227,0.442,2.694,1.148h0.027v-5.512H465.315z M462.157,210.006c0-0.167-0.017-0.401-0.027-0.563
	c-0.196-0.849-0.881-1.562-1.862-1.562c-1.437,0-2.189,1.287-2.189,2.893c0,1.734,0.856,2.809,2.177,2.809
	c0.909,0,1.639-0.625,1.823-1.521c0.062-0.225,0.079-0.448,0.079-0.725V210.006z"/>
<polygon fill="#FFFFFF" points="471.506,205.158 471.455,205.158 468.875,206.388 468.36,204.01 471.936,202.351 474.554,202.351 
	474.554,215.864 471.506,215.864 "/>
<path fill="#FFFFFF" d="M464.225,314.361v11.738c0,1.138,0.051,2.343,0.085,3.034h-2.795l-0.155-1.5h-0.042
	c-0.642,1.143-1.869,1.729-3.175,1.729c-2.416,0-4.348-2.062-4.348-5.226c-0.022-3.435,2.126-5.405,4.549-5.405
	c1.253,0,2.229,0.436,2.693,1.143h0.03v-5.513H464.225z M461.068,323.274c0-0.173-0.019-0.401-0.03-0.563
	c-0.195-0.861-0.879-1.573-1.86-1.573c-1.436,0-2.188,1.297-2.188,2.907c0,1.716,0.856,2.797,2.176,2.797
	c0.907,0,1.636-0.621,1.82-1.511c0.063-0.242,0.082-0.46,0.082-0.729V323.274z"/>
<path fill="#FFFFFF" d="M466.383,329.132v-1.918l1.74-1.574c2.957-2.643,4.395-4.17,4.431-5.736c0-1.11-0.668-1.982-2.226-1.982
	c-1.158,0-2.181,0.585-2.893,1.121l-0.902-2.27c1.029-0.77,2.607-1.391,4.444-1.391c3.044,0,4.731,1.787,4.731,4.245
	c0,2.269-1.636,4.078-3.594,5.83l-1.252,1.033v0.041h5.1v2.601H466.383z"/>
<path fill="#FFFFFF" d="M464.442,413.087v11.727c0,1.139,0.054,2.344,0.087,3.039h-2.794l-0.157-1.506h-0.04
	c-0.644,1.145-1.872,1.729-3.176,1.729c-2.418,0-4.349-2.061-4.349-5.213c-0.023-3.436,2.125-5.416,4.55-5.416
	c1.251,0,2.229,0.441,2.692,1.141h0.029v-5.5H464.442z M461.285,421.99c0-0.18-0.018-0.402-0.029-0.576
	c-0.193-0.838-0.879-1.561-1.86-1.561c-1.437,0-2.188,1.297-2.188,2.904c0,1.719,0.855,2.803,2.177,2.803
	c0.905,0,1.636-0.625,1.82-1.518c0.062-0.229,0.08-0.457,0.08-0.727V421.99z"/>
<path fill="#FFFFFF" d="M467.155,424.746c0.567,0.287,1.854,0.84,3.14,0.84c1.645,0,2.475-0.793,2.475-1.811
	c0-1.34-1.322-1.941-2.721-1.941h-1.286v-2.262h1.219c1.067-0.029,2.421-0.408,2.421-1.557c0-0.816-0.664-1.424-2.005-1.424
	c-1.102,0-2.254,0.482-2.823,0.814l-0.644-2.285c0.808-0.521,2.429-1.018,4.186-1.018c2.884,0,4.479,1.521,4.479,3.361
	c0,1.445-0.805,2.566-2.473,3.146v0.033c1.623,0.301,2.944,1.527,2.944,3.299c0,2.387-2.108,4.133-5.535,4.133
	c-1.759,0-3.229-0.459-4.022-0.959L467.155,424.746z"/>
<path fill="#FFFFFF" d="M463.788,495.853v11.73c0,1.143,0.053,2.35,0.087,3.039h-2.796l-0.157-1.5h-0.04
	c-0.642,1.143-1.871,1.725-3.174,1.725c-2.419,0-4.348-2.064-4.348-5.223c-0.024-3.434,2.124-5.402,4.549-5.402
	c1.251,0,2.228,0.432,2.693,1.145h0.029v-5.514H463.788z M460.631,504.753c0-0.172-0.02-0.391-0.029-0.562
	c-0.195-0.85-0.879-1.553-1.861-1.553c-1.436,0-2.188,1.289-2.188,2.885c0,1.729,0.857,2.803,2.177,2.803
	c0.909,0,1.636-0.615,1.82-1.506c0.062-0.232,0.082-0.465,0.082-0.732V504.753z"/>
<path fill="#FFFFFF" d="M471.542,510.623v-3.229h-5.996v-2.055l5.118-8.236h3.869v7.928h1.62v2.363h-1.62v3.229H471.542z
	 M471.542,505.031v-2.994c0-0.811,0.035-1.646,0.093-2.521h-0.077c-0.435,0.875-0.797,1.66-1.245,2.521l-1.808,2.943v0.051H471.542z
	"/>
<path fill="#FFFFFF" d="M464.006,591.162v11.721c0,1.145,0.053,2.359,0.086,3.047h-2.798l-0.154-1.506h-0.039
	c-0.645,1.141-1.873,1.73-3.175,1.73c-2.419,0-4.348-2.057-4.348-5.217c-0.024-3.436,2.124-5.41,4.547-5.41
	c1.253,0,2.229,0.438,2.694,1.148h0.029v-5.514H464.006z M460.849,600.062c0-0.172-0.019-0.395-0.029-0.561
	c-0.194-0.852-0.879-1.559-1.862-1.559c-1.434,0-2.187,1.289-2.187,2.883c0,1.732,0.856,2.809,2.177,2.809
	c0.907,0,1.637-0.619,1.818-1.516c0.064-0.227,0.083-0.457,0.083-0.723V600.062z"/>
<path fill="#FFFFFF" d="M475.183,595.011h-5.24l-0.292,2.078c0.292-0.047,0.546-0.047,0.881-0.047c1.285,0,2.595,0.299,3.549,0.975
	c1.026,0.697,1.647,1.816,1.647,3.396c0,2.516-2.165,4.74-5.8,4.74c-1.648,0-3.027-0.371-3.763-0.771l0.553-2.367
	c0.607,0.299,1.83,0.672,3.061,0.672c1.31,0,2.702-0.623,2.702-2.062c0-1.402-1.102-2.25-3.804-2.25
	c-0.748,0-1.277,0.039-1.833,0.127l0.895-7.086h7.444V595.011z"/>
<path fill="#FFFFFF" d="M463.201,671.775v11.73c0,1.139,0.053,2.338,0.087,3.039h-2.797l-0.153-1.502h-0.041
	c-0.644,1.145-1.873,1.719-3.176,1.719c-2.418,0-4.348-2.055-4.348-5.213c-0.023-3.436,2.123-5.404,4.549-5.404
	c1.253,0,2.228,0.432,2.691,1.137h0.03v-5.506H463.201z M460.043,680.673c0-0.17-0.019-0.4-0.03-0.562
	c-0.193-0.85-0.879-1.561-1.86-1.561c-1.435,0-2.188,1.297-2.188,2.895c0,1.723,0.856,2.803,2.177,2.803
	c0.908,0,1.637-0.615,1.82-1.512c0.062-0.236,0.081-0.465,0.081-0.734V680.673z"/>
<path fill="#FFFFFF" d="M473.987,675.265c-0.351,0-0.729,0-1.229,0.045c-2.803,0.217-4.054,1.662-4.403,3.24h0.053
	c0.678-0.689,1.601-1.08,2.869-1.08c2.275,0,4.193,1.598,4.193,4.41c0,2.678-2.068,4.881-4.992,4.881
	c-3.605,0-5.369-2.676-5.369-5.902c0-2.533,0.933-4.658,2.385-6.008c1.354-1.229,3.102-1.895,5.225-1.996
	c0.586-0.047,0.954-0.047,1.27-0.023V675.265z M470.45,684.443c1.096,0,1.814-1.027,1.814-2.4c0-1.24-0.664-2.322-2.021-2.322
	c-0.851,0-1.562,0.518-1.872,1.207c-0.087,0.16-0.128,0.414-0.128,0.779c0.059,1.438,0.747,2.736,2.183,2.736H470.45z"/>
<path fill="#FFFFFF" d="M376.236,733.423v11.736c0,1.137,0.041,2.34,0.08,3.033h-2.808l-0.138-1.494h-0.046
	c-0.648,1.143-1.871,1.719-3.177,1.719c-2.423,0-4.352-2.057-4.352-5.217c-0.023-3.434,2.112-5.402,4.554-5.402
	c1.252,0,2.223,0.432,2.676,1.139h0.052v-5.514H376.236z M373.078,742.324c0-0.166-0.017-0.4-0.052-0.564
	c-0.183-0.848-0.866-1.559-1.849-1.559c-1.435,0-2.183,1.297-2.183,2.895c0,1.721,0.856,2.805,2.164,2.805
	c0.915,0,1.648-0.613,1.831-1.508c0.071-0.236,0.088-0.473,0.088-0.736V742.324z"/>
<polygon fill="#FFFFFF" points="388.071,734.669 388.071,736.667 382.501,748.193 379.142,748.193 384.719,737.31 384.719,737.271 
	378.527,737.271 378.527,734.669 "/>
<path fill="#FFFFFF" d="M157.227,747.162c-0.551,0.242-1.62,0.484-2.825,0.484c-3.284,0-5.381-2.027-5.381-5.227
	c0-2.969,2.038-5.412,5.818-5.412c0.836,0,1.746,0.154,2.416,0.404l-0.494,2.348c-0.384-0.164-0.936-0.309-1.773-0.309
	c-1.671,0-2.739,1.178-2.723,2.842c0,1.873,1.247,2.861,2.792,2.861c0.747,0,1.321-0.139,1.803-0.336L157.227,747.162z"/>
<polygon fill="#FFFFFF" points="168.276,733.896 168.276,735.89 162.706,747.404 159.353,747.404 164.933,736.531 164.933,736.503 
	158.733,736.503 158.733,733.896 "/>
<path fill="#FFFFFF" d="M96.686,747.162c-0.562,0.242-1.624,0.484-2.825,0.484c-3.296,0-5.393-2.027-5.393-5.227
	c0-2.969,2.04-5.412,5.83-5.412c0.833,0,1.746,0.154,2.407,0.404l-0.494,2.348c-0.38-0.164-0.938-0.309-1.764-0.309
	c-1.671,0-2.75,1.178-2.733,2.842c0,1.873,1.247,2.861,2.79,2.861c0.742,0,1.327-0.139,1.804-0.336L96.686,747.162z"/>
<path fill="#FFFFFF" d="M106.667,736.142c-0.356,0-0.723,0-1.222,0.039c-2.809,0.23-4.062,1.656-4.412,3.242h0.063
	c0.661-0.68,1.608-1.082,2.865-1.082c2.269,0,4.193,1.607,4.193,4.41c0,2.684-2.069,4.895-5.003,4.895
	c-3.596,0-5.364-2.688-5.364-5.916c0-2.527,0.936-4.65,2.389-6.008c1.355-1.229,3.103-1.891,5.227-1.998
	c0.574-0.035,0.953-0.035,1.263-0.012V736.142z M103.136,745.316c1.108,0,1.808-1.014,1.808-2.398c0-1.25-0.671-2.324-2.021-2.324
	c-0.85,0-1.556,0.52-1.866,1.195c-0.086,0.176-0.125,0.428-0.125,0.803c0.058,1.428,0.745,2.725,2.182,2.725H103.136z"/>
<path fill="#FFFFFF" d="M37.133,742.363c-0.558,0.24-1.62,0.484-2.832,0.484c-3.279,0-5.38-2.027-5.38-5.229
	c0-2.969,2.039-5.408,5.822-5.408c0.827,0,1.746,0.15,2.418,0.404l-0.506,2.346c-0.372-0.164-0.935-0.311-1.768-0.311
	c-1.667,0-2.745,1.18-2.729,2.844c0,1.871,1.259,2.861,2.791,2.861c0.746,0,1.333-0.141,1.81-0.334L37.133,742.363z"/>
<path fill="#FFFFFF" d="M47.504,731.707h-5.231l-0.3,2.066c0.3-0.041,0.553-0.041,0.885-0.041c1.286,0,2.59,0.293,3.544,0.984
	c1.021,0.676,1.653,1.809,1.653,3.387c0,2.518-2.169,4.744-5.806,4.744c-1.646,0-3.015-0.381-3.772-0.771l0.573-2.373
	c0.599,0.289,1.827,0.66,3.057,0.66c1.304,0,2.71-0.619,2.71-2.053c0-1.391-1.103-2.246-3.812-2.246
	c-0.753,0-1.271,0.041-1.833,0.119l0.895-7.084h7.438V731.707z"/>
<path fill="#FFFFFF" d="M38.294,490.865c-0.563,0.246-1.626,0.471-2.825,0.471c-3.286,0-5.387-2.01-5.387-5.215
	c0-2.975,2.043-5.41,5.817-5.41c0.838,0,1.752,0.15,2.412,0.396l-0.488,2.35c-0.383-0.168-0.941-0.311-1.769-0.311
	c-1.672,0-2.75,1.182-2.728,2.844c0,1.877,1.246,2.852,2.785,2.852c0.741,0,1.328-0.119,1.814-0.33L38.294,490.865z"/>
<path fill="#FFFFFF" d="M40.212,488.011c0.551,0.291,1.85,0.83,3.135,0.83c1.65,0,2.476-0.791,2.476-1.809
	c0-1.326-1.327-1.936-2.722-1.936h-1.298v-2.266h1.233c1.058-0.029,2.414-0.408,2.414-1.559c0-0.809-0.66-1.412-1.993-1.412
	c-1.103,0-2.273,0.479-2.832,0.814l-0.643-2.295c0.81-0.518,2.43-1.016,4.175-1.016c2.895,0,4.497,1.52,4.497,3.369
	c0,1.436-0.815,2.555-2.469,3.141v0.041c1.62,0.285,2.922,1.518,2.922,3.285c0,2.391-2.095,4.135-5.53,4.135
	c-1.74,0-3.221-0.461-4.015-0.953L40.212,488.011z"/>
<path fill="#FFFFFF" d="M38.512,596.582c-0.563,0.248-1.625,0.475-2.826,0.475c-3.286,0-5.387-2.016-5.387-5.213
	c0-2.977,2.045-5.42,5.818-5.42c0.837,0,1.752,0.148,2.413,0.402l-0.49,2.354c-0.384-0.174-0.94-0.312-1.769-0.312
	c-1.671,0-2.75,1.172-2.728,2.838c0,1.883,1.248,2.848,2.785,2.848c0.741,0,1.327-0.113,1.815-0.318L38.512,596.582z"/>
<path fill="#FFFFFF" d="M45.467,596.83v-3.229h-5.995v-2.055l5.116-8.236h3.871v7.924h1.618v2.367h-1.618v3.229H45.467z
	 M45.467,591.234v-2.996c0-0.811,0.029-1.645,0.096-2.518h-0.078c-0.439,0.873-0.788,1.668-1.259,2.518l-1.803,2.949v0.047H45.467z"
	/>
<path fill="#644F43" d="M248.702,175.092v-7.845h-1.327v-2.331h1.327v-0.39c0-1.229,0.38-2.574,1.292-3.412
	c0.793-0.75,1.896-1.021,2.809-1.021c0.705,0,1.24,0.085,1.688,0.204l-0.128,2.436c-0.268-0.081-0.602-0.137-1.021-0.137
	c-1.033,0-1.476,0.804-1.476,1.803v0.517h2.039v2.331h-2.016v7.845H248.702z"/>
<path fill="#644F43" d="M255.048,175.092v-1.918l1.745-1.578c2.952-2.643,4.388-4.165,4.435-5.744c0-1.103-0.673-1.971-2.234-1.971
	c-1.155,0-2.172,0.575-2.884,1.115l-0.896-2.263c1.023-0.769,2.602-1.395,4.435-1.395c3.054,0,4.735,1.787,4.735,4.244
	c0,2.269-1.646,4.083-3.605,5.829l-1.235,1.04v0.034h5.089v2.607H255.048z"/>
<path fill="#FFFFFF" d="M131.119,76.234h3.161v5.799h0.038c0.604-0.872,1.667-1.43,3.08-1.43c2.429,0,4.22,2.016,4.204,5.128
	c0,3.664-2.333,5.491-4.664,5.491c-1.188,0-2.325-0.431-3.061-1.643h-0.034l-0.127,1.424h-2.682c0.041-0.67,0.085-1.895,0.085-3.036
	V76.234z M134.28,86.674c0,0.207,0.017,0.402,0.062,0.562c0.201,0.857,0.937,1.498,1.849,1.498c1.355,0,2.182-1.043,2.182-2.877
	c0-1.577-0.699-2.824-2.182-2.824c-0.851,0-1.648,0.642-1.849,1.555c-0.046,0.189-0.062,0.374-0.062,0.585V86.674z"/>
<polygon fill="#FFFFFF" points="147.2,80.288 147.148,80.288 144.576,81.517 144.059,79.152 147.632,77.475 150.25,77.475 
	150.25,91.003 147.2,91.003 "/>
<path fill="#FFFFFF" d="M354.939,74.925h3.17v5.8h0.04c0.603-0.874,1.66-1.43,3.077-1.43c2.431,0,4.222,2.014,4.199,5.127
	c0,3.665-2.326,5.49-4.657,5.49c-1.188,0-2.333-0.432-3.063-1.643h-0.037l-0.115,1.425h-2.693c0.049-0.673,0.08-1.895,0.08-3.039
	V74.925z M358.109,85.365c0,0.207,0.017,0.402,0.057,0.564c0.213,0.854,0.938,1.497,1.855,1.497c1.349,0,2.183-1.044,2.183-2.876
	c0-1.58-0.707-2.825-2.183-2.825c-0.851,0-1.643,0.644-1.855,1.556c-0.04,0.19-0.057,0.374-0.057,0.586V85.365z"/>
<path fill="#FFFFFF" d="M366.988,89.696v-1.919l1.744-1.58c2.957-2.642,4.394-4.151,4.429-5.743c0-1.101-0.666-1.97-2.223-1.97
	c-1.171,0-2.183,0.574-2.896,1.115l-0.888-2.263c1.009-0.77,2.595-1.396,4.428-1.396c3.061,0,4.737,1.787,4.737,4.246
	c0,2.268-1.638,4.076-3.59,5.828l-1.259,1.04v0.034h5.101v2.608H366.988z"/>
<path fill="#FFFFFF" d="M181.915,33.267h2.377v4.365h0.035c0.454-0.652,1.25-1.084,2.316-1.084c1.834,0,3.178,1.526,3.161,3.872
	c0,2.758-1.751,4.134-3.506,4.134c-0.885,0-1.755-0.33-2.296-1.236h-0.039l-0.086,1.062h-2.027c0.04-0.501,0.064-1.418,0.064-2.287
	V33.267z M184.292,41.126c0,0.155,0.019,0.298,0.048,0.418c0.15,0.648,0.705,1.132,1.396,1.132c1.015,0,1.637-0.786,1.637-2.16
	c0-1.194-0.526-2.127-1.637-2.127c-0.64,0-1.246,0.483-1.396,1.166c-0.03,0.148-0.048,0.286-0.048,0.443V41.126z"/>
<path fill="#FFFFFF" d="M191.398,42.046c0.429,0.226,1.396,0.631,2.366,0.631c1.236,0,1.862-0.596,1.862-1.365
	c0-1-0.999-1.454-2.049-1.454h-0.967v-1.71h0.922c0.801-0.01,1.813-0.308,1.813-1.168c0-0.613-0.497-1.062-1.506-1.062
	c-0.829,0-1.703,0.354-2.126,0.604l-0.484-1.721c0.61-0.398,1.833-0.768,3.148-0.768c2.174,0,3.384,1.14,3.384,2.537
	c0,1.084-0.609,1.923-1.872,2.365v0.034c1.224,0.211,2.209,1.136,2.209,2.473c0,1.798-1.578,3.113-4.158,3.113
	c-1.319,0-2.426-0.337-3.027-0.719L191.398,42.046z"/>
<path fill="#644F43" d="M246.858,649.681v-8.225h-1.418v-2.441h1.418v-0.416c0-1.289,0.394-2.705,1.33-3.576
	c0.851-0.787,1.985-1.068,2.966-1.068c0.72,0,1.287,0.109,1.746,0.219l-0.131,2.551c-0.284-0.09-0.633-0.154-1.068-0.154
	c-1.092,0-1.549,0.854-1.549,1.898v0.547h2.137v2.441h-2.115v8.225H246.858z"/>
<polygon fill="#644F43" points="257.719,638.445 257.675,638.445 254.97,639.734 254.425,637.248 258.2,635.503 260.925,635.503 
	260.925,649.681 257.719,649.681 "/>
<path fill="#FFFFFF" d="M28.448,681.679c-0.472,0.225-1.362,0.398-2.374,0.398c-2.757,0-4.518-1.691-4.518-4.379
	c0-2.494,1.71-4.535,4.885-4.535c0.698,0,1.466,0.121,2.024,0.33l-0.419,1.971c-0.313-0.137-0.784-0.26-1.483-0.26
	c-1.396,0-2.303,0.994-2.286,2.389c0,1.57,1.046,2.41,2.339,2.41c0.629,0,1.117-0.107,1.517-0.279L28.448,681.679z"/>
<path fill="#FFFFFF" d="M36.823,672.429c-0.297-0.018-0.61,0-1.031,0.035c-2.354,0.178-3.401,1.395-3.699,2.703h0.053
	c0.559-0.555,1.362-0.889,2.409-0.889c1.901,0,3.507,1.344,3.507,3.701c0,2.25-1.729,4.098-4.169,4.098
	c-3.038,0-4.52-2.25-4.52-4.955c0-2.127,0.785-3.906,2.023-5.059c1.116-1.031,2.599-1.57,4.362-1.658
	c0.488-0.051,0.82-0.035,1.065-0.018V672.429z M33.855,680.125c0.926,0,1.518-0.855,1.518-2.006c0-1.047-0.557-1.955-1.691-1.955
	c-0.716,0-1.309,0.436-1.552,0.994c-0.088,0.156-0.124,0.367-0.124,0.68c0.053,1.207,0.628,2.287,1.832,2.287H33.855z"/>
<path fill="#FFFFFF" d="M39.595,676.218c0-1.119-0.034-2.062-0.07-2.863h2.303l0.123,1.186h0.036
	c0.627-0.889,1.605-1.377,2.843-1.377c1.867,0,3.542,1.623,3.542,4.344c0,3.104-1.972,4.57-3.874,4.57
	c-1.029,0-1.831-0.42-2.216-0.975h-0.034v4.238h-2.653V676.218z M42.248,678.224c0,0.207,0.018,0.383,0.053,0.557
	c0.173,0.715,0.784,1.256,1.551,1.256c1.152,0,1.833-0.959,1.833-2.404c0-1.365-0.611-2.391-1.797-2.391
	c-0.75,0-1.414,0.555-1.586,1.34c-0.036,0.143-0.053,0.314-0.053,0.471V678.224z"/>
<path fill="#FFFFFF" d="M57.13,679.828c0,0.803,0.035,1.59,0.14,2.057h-2.391l-0.156-0.854H54.67
	c-0.558,0.682-1.431,1.047-2.443,1.047c-1.726,0-2.756-1.256-2.756-2.617c0-2.215,1.988-3.262,5.007-3.262v-0.104
	c0-0.457-0.244-1.098-1.551-1.098c-0.873,0-1.797,0.295-2.357,0.625l-0.488-1.691c0.593-0.332,1.762-0.768,3.314-0.768
	c2.844,0,3.734,1.674,3.734,3.678V679.828z M54.565,677.855c-1.396,0-2.477,0.332-2.477,1.344c0,0.682,0.453,1.014,1.045,1.014
	c0.647,0,1.205-0.438,1.379-0.977c0.035-0.141,0.052-0.297,0.052-0.455V677.855z"/>
<path fill="#FFFFFF" d="M33.184,343.571c-0.551,0.265-1.59,0.469-2.773,0.469c-3.221,0-5.279-1.978-5.279-5.095
	c0-2.914,1.997-5.299,5.707-5.299c0.817,0,1.712,0.145,2.365,0.387l-0.489,2.302c-0.368-0.163-0.918-0.304-1.733-0.304
	c-1.631,0-2.691,1.161-2.67,2.791c0,1.815,1.222,2.792,2.731,2.792c0.735,0,1.305-0.122,1.774-0.325L33.184,343.571z"/>
<path fill="#FFFFFF" d="M34.53,343.836v-1.875l1.691-1.528c2.916-2.609,4.322-4.098,4.343-5.645c0-1.08-0.632-1.937-2.162-1.937
	c-1.142,0-2.142,0.57-2.834,1.08l-0.876-2.199c0.979-0.755,2.547-1.366,4.322-1.366c3.016,0,4.648,1.752,4.648,4.136
	c0,2.24-1.589,4.015-3.526,5.727l-1.223,1.02v0.04h5.016v2.547H34.53z"/>
<path fill="#FFFFFF" d="M54.511,341.432c0,0.937,0.041,1.854,0.164,2.404H51.88l-0.184-0.997h-0.06
	c-0.652,0.795-1.672,1.221-2.855,1.221c-2.018,0-3.221-1.466-3.221-3.056c0-2.589,2.324-3.812,5.852-3.812v-0.122
	c0-0.55-0.286-1.305-1.814-1.305c-1.021,0-2.1,0.348-2.754,0.755l-0.57-1.998c0.693-0.388,2.059-0.896,3.874-0.896
	c3.325,0,4.363,1.955,4.363,4.319V341.432z M51.515,339.128c-1.631,0-2.895,0.387-2.895,1.569c0,0.795,0.529,1.182,1.223,1.182
	c0.754,0,1.407-0.509,1.611-1.14c0.041-0.164,0.061-0.347,0.061-0.53V339.128z"/>
<path fill="#FFFFFF" d="M32.748,412.986c-0.551,0.264-1.591,0.469-2.772,0.469c-3.222,0-5.282-1.977-5.282-5.098
	c0-2.916,1.998-5.303,5.709-5.303c0.815,0,1.712,0.145,2.364,0.389l-0.489,2.303c-0.367-0.162-0.917-0.305-1.732-0.305
	c-1.631,0-2.691,1.162-2.672,2.793c0,1.814,1.224,2.795,2.732,2.795c0.734,0,1.305-0.123,1.774-0.328L32.748,412.986z"/>
<path fill="#FFFFFF" d="M34.092,413.25v-1.875l1.693-1.529c2.916-2.609,4.321-4.098,4.342-5.646c0-1.082-0.631-1.938-2.161-1.938
	c-1.143,0-2.142,0.57-2.834,1.08l-0.877-2.203c0.98-0.754,2.549-1.365,4.323-1.365c3.017,0,4.648,1.754,4.648,4.139
	c0,2.242-1.589,4.018-3.527,5.73l-1.222,1.018v0.041h5.014v2.549H34.092z"/>
<path fill="#FFFFFF" d="M45.776,398.775h3.1v5.688h0.04c0.592-0.855,1.632-1.406,3.019-1.406c2.384,0,4.119,1.977,4.097,5.035
	c0,3.59-2.262,5.383-4.546,5.383c-1.164,0-2.305-0.428-2.997-1.611h-0.043l-0.121,1.387h-2.631c0.042-0.65,0.082-1.854,0.082-2.977
	V398.775z M48.876,409.009c0,0.205,0.02,0.387,0.06,0.551c0.206,0.816,0.918,1.469,1.815,1.469c1.326,0,2.141-1.02,2.141-2.814
	c0-1.551-0.694-2.773-2.141-2.773c-0.837,0-1.61,0.631-1.815,1.529c-0.04,0.182-0.06,0.367-0.06,0.57V409.009z"/>
<rect x="221.78" y="92.945" fill="#F39208" width="0.001" height="4.341"/>
<path fill="#F9AE0A" d="M235.678,37.913c0-0.604,0.035-1.227,0.078-1.893H235.7c-0.333,0.667-0.6,1.253-0.947,1.893l-1.356,2.222
	v0.035h2.281V37.913z"/>
<path fill="#F9AE0A" d="M227.871,40.517c0-1.193-0.541-2.127-1.648-2.127c-0.644,0-1.229,0.484-1.396,1.166
	c-0.026,0.148-0.042,0.287-0.042,0.443v1.128c0,0.154,0.017,0.298,0.042,0.418c0.166,0.648,0.705,1.132,1.396,1.132
	C227.245,42.677,227.871,41.891,227.871,40.517"/>
<path fill="#F9AE0A" d="M226.125,67.63h23.699V10.272h-41.341V67.63h13.299v0.051h4.342V67.63z M231.169,40.408l3.853-6.204h2.917
	v5.967h1.219v1.786h-1.219v2.424h-2.26v-2.424h-4.509V40.408z M224.486,43.318h-0.039l-0.087,1.062h-2.027
	c0.039-0.5,0.069-1.417,0.069-2.286v-8.827h2.382v4.365h0.03c0.455-0.653,1.249-1.085,2.312-1.085c1.838,0,3.187,1.527,3.166,3.874
	c0,2.758-1.755,4.134-3.501,4.134C225.895,44.555,225.026,44.225,224.486,43.318"/>
<polygon fill="#F39208" points="295.168,92.945 226.125,92.945 226.125,67.681 221.782,67.681 221.782,92.945 221.782,97.286 
	221.782,97.293 226.125,97.293 226.125,97.286 295.168,97.286 295.168,97.289 299.511,97.289 299.511,67.681 295.168,67.681 "/>
<path fill="#1E1E1C" d="M332.567,67.701l0.172-57.356h-61.713l-0.115,57.25l24.258,0.043v0.043h4.344v-0.037L332.567,67.701z
	 M303.789,42.03c0.426,0.205,1.298,0.469,2.17,0.469c0.925,0,1.922-0.444,1.922-1.459c0-0.988-0.782-1.591-2.704-1.591
	c-0.533,0-0.9,0.027-1.304,0.09l0.64-5.036h5.275v1.843h-3.71l-0.209,1.477c0.209-0.029,0.387-0.029,0.623-0.029
	c0.911,0,1.836,0.204,2.512,0.693c0.729,0.485,1.174,1.286,1.174,2.405c0,1.785-1.535,3.36-4.112,3.36
	c-1.174,0-2.144-0.269-2.673-0.545L303.789,42.03z M296.821,43.09h-0.038l-0.093,1.001h-1.897c0.028-0.472,0.061-1.336,0.061-2.153
	v-8.317h2.24v4.113h0.027c0.429-0.615,1.182-1.021,2.188-1.021c1.717,0,2.988,1.438,2.976,3.648c0,2.599-1.653,3.893-3.307,3.893
	C298.134,44.254,297.33,43.946,296.821,43.09"/>
<path fill="#1E1E1C" d="M298.458,38.446c-0.607,0-1.178,0.457-1.316,1.1c-0.035,0.139-0.048,0.268-0.048,0.416v1.063
	c0,0.147,0.013,0.28,0.048,0.396c0.139,0.609,0.664,1.066,1.316,1.066c0.952,0,1.54-0.743,1.54-2.038
	C299.998,39.327,299.499,38.446,298.458,38.446"/>
<path fill="#1E1E1C" d="M488.747,705.093h-48.995v31.385h48.995V705.093z M453.744,727.275l-0.088-1.033h-0.045
	c-0.436,0.787-1.309,1.195-2.228,1.195c-1.687,0-3.04-1.441-3.04-3.654c-0.014-2.389,1.484-3.783,3.188-3.783
	c0.888,0,1.557,0.32,1.878,0.799h0.028v-3.855h2.213v8.207c0,0.816,0.029,1.645,0.059,2.125H453.744z M460.746,727.437
	c-2.533,0-3.771-1.877-3.771-4.135c0-1.775,0.654-3.262,1.687-4.221c0.934-0.859,2.169-1.312,3.64-1.383
	c0.408-0.045,0.686-0.029,0.888-0.016v1.703c-0.247-0.012-0.508,0-0.857,0.029c-1.966,0.146-2.839,1.164-3.086,2.256h0.042
	c0.468-0.465,1.137-0.744,2.009-0.744c1.587,0,2.928,1.123,2.928,3.09C464.224,725.894,462.781,727.437,460.746,727.437
	 M469.593,727.437c-0.858,0-1.527-0.35-1.848-0.816h-0.031v3.537h-2.212v-7.613c0-0.932-0.028-1.715-0.058-2.387h1.923l0.101,0.992
	h0.029c0.524-0.744,1.34-1.15,2.372-1.15c1.558,0,2.956,1.354,2.956,3.623C472.826,726.212,471.179,727.437,469.593,727.437
	 M478.123,726.564h-0.045c-0.465,0.566-1.191,0.873-2.036,0.873c-1.441,0-2.3-1.049-2.3-2.184c0-1.85,1.659-2.725,4.178-2.725
	v-0.088c0-0.377-0.205-0.914-1.295-0.914c-0.729,0-1.501,0.248-1.967,0.523l-0.407-1.412c0.495-0.277,1.47-0.639,2.766-0.639
	c2.372,0,3.114,1.395,3.114,3.07v2.49c0,0.668,0.031,1.322,0.116,1.715h-1.993L478.123,726.564z"/>
<path fill="#1E1E1C" d="M469.084,721.728c-0.625,0-1.179,0.469-1.326,1.123c-0.026,0.115-0.044,0.264-0.044,0.393v0.975
	c0,0.174,0.018,0.32,0.044,0.467c0.147,0.596,0.655,1.049,1.297,1.049c0.961,0,1.529-0.801,1.529-2.01
	C470.584,722.587,470.075,721.728,469.084,721.728"/>
<path fill="#0653A1" d="M452.113,749.658c-1.018,0-1.527,0.902-1.527,2.023c0,1.193,0.596,1.949,1.514,1.949
	c0.64,0,1.163-0.436,1.295-1.059c0.029-0.146,0.043-0.322,0.043-0.496v-0.932c0-0.133,0-0.275-0.028-0.408
	C453.278,750.138,452.796,749.658,452.113,749.658"/>
<path fill="#1E1E1C" d="M475.925,725.033c0,0.57,0.378,0.846,0.873,0.846c0.539,0,1.003-0.363,1.149-0.816
	c0.029-0.115,0.045-0.244,0.045-0.377v-0.771C476.828,723.914,475.925,724.191,475.925,725.033"/>
<path fill="#1E1E1C" d="M452.113,721.701c-1.018,0-1.527,0.902-1.527,2.023c0,1.193,0.596,1.951,1.514,1.951
	c0.64,0,1.163-0.438,1.295-1.064c0.029-0.143,0.043-0.318,0.043-0.494v-0.93c0-0.133,0-0.279-0.028-0.408
	C453.278,722.183,452.796,721.701,452.113,721.701"/>
<path fill="#1E1E1C" d="M460.57,722.501c-0.598,0-1.093,0.363-1.296,0.83c-0.071,0.131-0.102,0.307-0.102,0.568
	c0.044,1.006,0.523,1.906,1.528,1.906h0.014c0.771,0,1.268-0.715,1.268-1.676C461.982,723.259,461.516,722.501,460.57,722.501"/>
<path fill="#0653A1" d="M477.76,749.658c-0.599,0-1.151,0.453-1.297,1.092c-0.029,0.133-0.044,0.262-0.044,0.408v1.047
	c0,0.146,0.015,0.277,0.044,0.395c0.146,0.582,0.655,1.047,1.297,1.047c0.943,0,1.527-0.729,1.527-2.008
	C479.288,750.533,478.794,749.658,477.76,749.658"/>
<path fill="#0653A1" d="M469.084,749.685c-0.625,0-1.179,0.467-1.326,1.123c-0.026,0.115-0.044,0.262-0.044,0.393v0.977
	c0,0.174,0.018,0.32,0.044,0.465c0.147,0.598,0.655,1.047,1.297,1.047c0.961,0,1.529-0.801,1.529-2.008
	C470.584,750.544,470.075,749.685,469.084,749.685"/>
<path fill="#0653A1" d="M439.751,767.863h48.995v-31.387h-48.995V767.863z M453.744,755.232l-0.088-1.033h-0.045
	c-0.436,0.787-1.309,1.193-2.228,1.193c-1.687,0-3.04-1.438-3.04-3.652c-0.014-2.389,1.485-3.785,3.188-3.785
	c0.888,0,1.558,0.322,1.878,0.801h0.028V744.9h2.213v8.209c0,0.812,0.029,1.645,0.06,2.123H453.744z M460.746,755.392
	c-2.533,0-3.771-1.875-3.771-4.131c0-1.779,0.654-3.264,1.687-4.223c0.934-0.859,2.169-1.311,3.64-1.381
	c0.408-0.045,0.686-0.031,0.889-0.018v1.705c-0.248-0.016-0.509,0-0.858,0.027c-1.966,0.146-2.839,1.164-3.088,2.258h0.044
	c0.466-0.467,1.137-0.744,2.009-0.744c1.587,0,2.928,1.123,2.928,3.088C464.224,753.849,462.781,755.392,460.746,755.392
	 M469.594,755.392c-0.859,0-1.528-0.35-1.849-0.814h-0.031v3.539h-2.212v-7.613c0-0.932-0.028-1.719-0.057-2.389h1.922l0.101,0.992
	h0.029c0.524-0.744,1.34-1.152,2.372-1.152c1.558,0,2.956,1.355,2.956,3.623C472.826,754.169,471.18,755.392,469.594,755.392
	 M478.283,755.392c-0.831,0-1.645-0.303-2.141-1.15h-0.027l-0.088,0.99h-1.878c0.027-0.465,0.059-1.324,0.059-2.123V744.9h2.212
	v4.059h0.029c0.423-0.609,1.164-1.004,2.154-1.004c1.703,0,2.941,1.414,2.927,3.596C481.53,754.113,479.914,755.392,478.283,755.392
	"/>
<path fill="#0653A1" d="M460.57,750.458c-0.598,0-1.093,0.363-1.296,0.83c-0.071,0.131-0.102,0.305-0.102,0.566
	c0.044,1.006,0.523,1.91,1.528,1.91h0.014c0.771,0,1.268-0.715,1.268-1.678C461.982,751.218,461.516,750.458,460.57,750.458"/>
<path fill="#FFFFFF" d="M455.65,716.943h-2.213v3.855h-0.028c-0.32-0.479-0.99-0.799-1.878-0.799c-1.702,0-3.201,1.395-3.188,3.783
	c0,2.213,1.354,3.654,3.04,3.654c0.919,0,1.792-0.408,2.229-1.195h0.043l0.089,1.033h1.966c-0.03-0.48-0.06-1.309-0.06-2.125
	V716.943z M453.437,724.117c0,0.176-0.016,0.352-0.043,0.494c-0.132,0.627-0.655,1.064-1.294,1.064
	c-0.919,0-1.515-0.758-1.515-1.951c0-1.121,0.51-2.023,1.527-2.023c0.684,0,1.163,0.482,1.296,1.078
	c0.028,0.129,0.028,0.275,0.028,0.408V724.117z"/>
<path fill="#FFFFFF" d="M461.296,720.927c-0.873,0-1.543,0.279-2.009,0.744h-0.044c0.249-1.092,1.123-2.109,3.089-2.256
	c0.349-0.029,0.609-0.043,0.857-0.029v-1.703c-0.202-0.014-0.48-0.029-0.89,0.016c-1.47,0.07-2.705,0.523-3.639,1.383
	c-1.032,0.959-1.687,2.445-1.687,4.221c0,2.258,1.237,4.135,3.771,4.135c2.035,0,3.479-1.543,3.479-3.42
	C464.225,722.05,462.883,720.927,461.296,720.927 M460.714,725.806h-0.014c-1.006,0-1.484-0.9-1.528-1.906
	c0-0.26,0.03-0.438,0.102-0.568c0.202-0.467,0.698-0.83,1.296-0.83c0.946,0,1.411,0.758,1.411,1.629
	C461.981,725.091,461.486,725.806,460.714,725.806"/>
<path fill="#FFFFFF" d="M469.87,720.001c-1.032,0-1.848,0.404-2.372,1.148h-0.029l-0.101-0.992h-1.922
	c0.028,0.672,0.057,1.455,0.057,2.387v7.613h2.212v-3.537h0.031c0.32,0.467,0.989,0.816,1.849,0.816
	c1.586,0,3.231-1.225,3.231-3.814C472.826,721.353,471.427,720.001,469.87,720.001 M469.055,725.734
	c-0.64,0-1.149-0.453-1.295-1.049c-0.028-0.146-0.046-0.293-0.046-0.467v-0.975c0-0.129,0.018-0.277,0.046-0.393
	c0.146-0.654,0.698-1.123,1.324-1.123c0.99,0,1.5,0.859,1.5,1.996C470.584,724.933,470.016,725.734,469.055,725.734"/>
<path fill="#FFFFFF" d="M480.131,725.56v-2.49c0-1.676-0.743-3.07-3.114-3.07c-1.298,0-2.271,0.361-2.767,0.639l0.407,1.412
	c0.466-0.275,1.239-0.523,1.968-0.523c1.089,0,1.294,0.537,1.294,0.914v0.088c-2.519,0-4.178,0.875-4.178,2.725
	c0,1.135,0.859,2.184,2.3,2.184c0.845,0,1.57-0.307,2.036-0.873h0.044l0.132,0.711h1.994
	C480.162,726.882,480.131,726.228,480.131,725.56 M477.993,724.685c0,0.133-0.018,0.262-0.045,0.377
	c-0.146,0.453-0.61,0.816-1.149,0.816c-0.495,0-0.873-0.275-0.873-0.846c0-0.842,0.902-1.119,2.067-1.119V724.685z"/>
<path fill="#FFFFFF" d="M455.65,744.9h-2.213v3.855h-0.028c-0.32-0.479-0.99-0.801-1.878-0.801c-1.702,0-3.201,1.396-3.188,3.785
	c0,2.213,1.354,3.652,3.04,3.652c0.919,0,1.792-0.406,2.229-1.193h0.043l0.089,1.033h1.966c-0.03-0.479-0.06-1.311-0.06-2.123V744.9
	z M453.437,752.076c0,0.174-0.016,0.35-0.043,0.496c-0.132,0.623-0.655,1.059-1.294,1.059c-0.919,0-1.515-0.756-1.515-1.949
	c0-1.121,0.51-2.023,1.527-2.023c0.684,0,1.163,0.48,1.296,1.078c0.028,0.133,0.028,0.275,0.028,0.408V752.076z"/>
<path fill="#FFFFFF" d="M461.296,748.886c-0.873,0-1.543,0.277-2.009,0.744h-0.044c0.249-1.094,1.123-2.111,3.089-2.258
	c0.349-0.027,0.609-0.043,0.857-0.027v-1.705c-0.202-0.012-0.48-0.027-0.89,0.018c-1.47,0.07-2.705,0.521-3.639,1.381
	c-1.032,0.959-1.687,2.443-1.687,4.223c0,2.254,1.237,4.131,3.771,4.131c2.035,0,3.479-1.543,3.479-3.418
	C464.225,750.009,462.883,748.886,461.296,748.886 M460.714,753.765h-0.014c-1.006,0-1.484-0.904-1.528-1.91
	c0-0.262,0.03-0.436,0.102-0.566c0.202-0.467,0.698-0.83,1.296-0.83c0.946,0,1.411,0.76,1.411,1.629
	C461.981,753.05,461.486,753.765,460.714,753.765"/>
<path fill="#FFFFFF" d="M469.87,747.955c-1.032,0-1.848,0.408-2.372,1.152h-0.029l-0.101-0.992h-1.922
	c0.028,0.67,0.057,1.457,0.057,2.389v7.613h2.212v-3.539h0.031c0.32,0.465,0.989,0.814,1.849,0.814c1.586,0,3.231-1.223,3.231-3.814
	C472.826,749.31,471.427,747.955,469.87,747.955 M469.055,753.689c-0.64,0-1.149-0.449-1.295-1.047
	c-0.028-0.145-0.046-0.291-0.046-0.465v-0.977c0-0.131,0.018-0.277,0.046-0.393c0.146-0.656,0.698-1.123,1.324-1.123
	c0.99,0,1.5,0.859,1.5,1.996C470.584,752.888,470.016,753.689,469.055,753.689"/>
<path fill="#FFFFFF" d="M478.603,747.955c-0.989,0-1.731,0.395-2.153,1.004h-0.03V744.9h-2.211v8.209
	c0,0.799-0.031,1.658-0.06,2.123h1.878l0.088-0.99h0.028c0.494,0.848,1.31,1.15,2.141,1.15c1.63,0,3.246-1.279,3.246-3.842
	C481.545,749.369,480.306,747.955,478.603,747.955 M477.76,753.646c-0.642,0-1.151-0.465-1.297-1.047
	c-0.029-0.117-0.044-0.248-0.044-0.395v-1.047c0-0.146,0.015-0.275,0.044-0.408c0.146-0.639,0.698-1.092,1.297-1.092
	c1.034,0,1.527,0.875,1.527,1.98C479.288,752.917,478.704,753.646,477.76,753.646"/>
<g opacity="0.2">
	<g>
		<defs>
			<rect id="SVGID_3_" x="401.167" y="96.389" width="31.063" height="42.943"/>
		</defs>
		<clipPath id="SVGID_4_">
			<use xlink:href="#SVGID_3_"  overflow="visible"/>
		</clipPath>
		<rect x="401.167" y="96.389" clip-path="url(#SVGID_4_)" fill="#1E1E1C" width="31.063" height="42.943"/>
	</g>
</g>
</svg>
