<?xml version="1.0" encoding="utf-8"?>
<!-- Generator: Adobe Illustrator 15.1.0, SVG Export Plug-In . SVG Version: 6.00 Build 0)  -->
<!DOCTYPE svg PUBLIC "-//W3C//DTD SVG 1.1//EN" "http://www.w3.org/Graphics/SVG/1.1/DTD/svg11.dtd">
<svg version="1.1" id="Capa_1" xmlns="http://www.w3.org/2000/svg" xmlns:xlink="http://www.w3.org/1999/xlink" x="0px" y="0px"
	 width="1024px" height="768px" viewBox="0 0 1024 768" enable-background="new 0 0 1024 768" xml:space="preserve">
<polygon opacity="0.2" fill-rule="evenodd" clip-rule="evenodd" fill="#1D1D1B" points="186.958,671.468 283.553,671.468 
	283.553,619.096 386.744,619.096 386.744,159.008 299.068,159.008 299.068,87.24 284.331,87.24 284.331,111.291 201.31,111.291 
	201.31,87.24 174.546,87.24 174.546,160.949 86.097,160.949 86.097,618.712 186.959,618.712 "/>
<rect x="32.198" y="29.627" fill="#0052A1" width="80.837" height="122.459"/>
<rect x="116.986" y="29.721" fill="#F9AE00" width="48.089" height="122.258"/>
<polygon fill="#F9AE00" points="194.305,78.426 168.962,78.455 168.962,29.626 194.427,29.626 "/>
<rect x="307.651" y="29.713" fill="#1D1D1B" width="47.412" height="121.317"/>
<rect x="394.696" y="153.595" fill="#F9AE00" width="41.484" height="88.642"/>
<rect x="394.696" y="246.043" fill="#F9AE00" width="41.484" height="94.904"/>
<rect x="394.696" y="344.834" fill="#F9AE00" width="41.484" height="66.396"/>
<rect x="394.696" y="415.135" fill="#F9AE00" width="41.484" height="65.084"/>
<rect x="394.696" y="484.107" fill="#5D356C" width="41.484" height="93.151"/>
<rect x="394.696" y="581.123" fill="#5D356C" width="41.484" height="34.664"/>
<rect x="32.188" y="156.023" fill="#E63020" width="45.187" height="119.972"/>
<rect x="32.181" y="340.105" fill="#008877" width="45.001" height="55.931"/>
<rect x="32.181" y="280.302" fill="#008877" width="45.001" height="55.918"/>
<rect x="32.174" y="399.927" fill="#0052A1" width="45.094" height="68.975"/>
<rect x="32.173" y="472.804" fill="#E63020" width="45.187" height="99.285"/>
<rect x="32.255" y="619.544" fill="#F9AE00" width="45.097" height="53.337"/>
<rect x="32.07" y="576.021" fill="#1D1D1B" width="45.189" height="39.633"/>
<rect x="81.287" y="627.173" fill="#008877" width="47.829" height="45.867"/>
<rect x="133.005" y="627.044" fill="#008877" width="45.93" height="46.146"/>
<rect x="199.123" y="226.371" fill="#E63020" width="70.747" height="270.013"/>
<rect x="273.759" y="262.348" fill="#E63020" width="56.672" height="198.847"/>
<rect x="138.561" y="366.218" fill="#E63020" width="56.672" height="95.163"/>
<rect x="138.561" y="262.301" fill="#0052A1" width="56.672" height="99.904"/>
<rect x="291.376" y="626.999" fill="#0052A1" width="99.518" height="45.977"/>
<polygon fill="#1D1D1B" points="407.552,29.687 405.314,29.687 359.075,29.687 359.075,95.526 394.696,95.526 394.696,113.754 
	394.696,121.467 394.696,145.814 358.391,145.814 358.391,149.797 436.18,149.797 436.18,149.697 436.18,145.814 436.18,121.484 
	436.242,121.484 436.242,29.687 "/>
<path fill="#FFFFFF" d="M234.805,361.782c0,0.742,0.029,1.474,0.126,1.907h-2.214l-0.146-0.785h-0.044
	c-0.517,0.629-1.336,0.966-2.262,0.966c-1.605,0-2.566-1.165-2.566-2.419c0-2.059,1.849-3.023,4.643-3.023v-0.102
	c0-0.42-0.224-1.021-1.434-1.021c-0.809,0-1.667,0.273-2.185,0.586l-0.454-1.574c0.552-0.308,1.635-0.707,3.078-0.707
	c2.629,0,3.458,1.551,3.458,3.414V361.782z M232.43,359.959c-1.292,0-2.302,0.312-2.302,1.238c0,0.634,0.425,0.946,0.971,0.946
	c0.604,0,1.117-0.405,1.278-0.901c0.039-0.143,0.053-0.283,0.053-0.425V359.959z"/>
<polygon fill="#FFFFFF" points="239.185,355.364 239.155,355.364 237.146,356.316 236.741,354.477 239.541,353.18 241.564,353.18 
	241.564,363.689 239.185,363.689 "/>
<path fill="#FFFFFF" d="M301.022,364.479c0,0.746,0.028,1.478,0.126,1.916h-2.214l-0.142-0.799h-0.058
	c-0.508,0.629-1.317,0.97-2.253,0.97c-1.605,0-2.556-1.166-2.556-2.419c0-2.053,1.844-3.023,4.638-3.023v-0.103
	c0-0.419-0.224-1.015-1.438-1.015c-0.815,0-1.668,0.273-2.185,0.576l-0.449-1.57c0.546-0.303,1.634-0.707,3.067-0.707
	c2.638,0,3.463,1.546,3.463,3.414V364.479z M298.642,362.654c-1.292,0-2.292,0.312-2.292,1.244c0,0.635,0.415,0.946,0.965,0.946
	c0.6,0,1.117-0.41,1.278-0.912c0.029-0.126,0.048-0.278,0.048-0.415V362.654z"/>
<path fill="#FFFFFF" d="M302.285,366.395v-1.492l1.336-1.209c2.312-2.077,3.433-3.253,3.448-4.478c0-0.862-0.497-1.536-1.716-1.536
	c-0.902,0-1.697,0.444-2.243,0.854l-0.698-1.745c0.78-0.596,2.019-1.083,3.429-1.083c2.394,0,3.682,1.395,3.682,3.297
	c0,1.766-1.253,3.17-2.794,4.524l-0.966,0.811v0.028h3.974v2.029H302.285z"/>
<path fill="#FFFFFF" d="M166.738,415.557c0,0.835,0.044,1.646,0.151,2.142h-2.492l-0.161-0.896h-0.059
	c-0.58,0.712-1.497,1.102-2.545,1.102c-1.805,0-2.868-1.316-2.868-2.736c0-2.297,2.073-3.398,5.208-3.398v-0.108
	c0-0.478-0.248-1.15-1.62-1.15c-0.902,0-1.867,0.312-2.458,0.663l-0.507-1.771c0.624-0.337,1.843-0.795,3.462-0.795
	c2.965,0,3.887,1.746,3.887,3.835V415.557z M164.07,413.5c-1.463,0-2.584,0.341-2.584,1.404c0,0.707,0.473,1.043,1.087,1.043
	c0.673,0,1.258-0.443,1.443-1.014c0.034-0.142,0.054-0.312,0.054-0.469V413.5z"/>
<path fill="#FFFFFF" d="M169.084,414.997c0.497,0.264,1.624,0.716,2.75,0.716c1.434,0,2.161-0.688,2.161-1.561
	c0-1.185-1.156-1.71-2.356-1.71h-1.131v-1.991h1.073c0.922,0,2.092-0.36,2.092-1.356c0-0.706-0.561-1.238-1.751-1.238
	c-0.961,0-1.975,0.42-2.448,0.713l-0.571-2.004c0.716-0.454,2.116-0.893,3.657-0.893c2.512,0,3.916,1.337,3.916,2.95
	c0,1.253-0.716,2.258-2.165,2.745v0.04c1.414,0.252,2.565,1.325,2.565,2.887c0,2.076-1.838,3.608-4.843,3.608
	c-1.526,0-2.819-0.4-3.511-0.828L169.084,414.997z"/>
<path fill="#FFFFFF" d="M165.979,316.977c0,0.829,0.034,1.648,0.146,2.141h-2.498l-0.161-0.893h-0.053
	c-0.581,0.712-1.498,1.092-2.546,1.092c-1.804,0-2.877-1.307-2.877-2.725c0-2.316,2.072-3.407,5.228-3.407v-0.107
	c0-0.468-0.258-1.141-1.629-1.141c-0.907,0-1.863,0.308-2.453,0.653l-0.511-1.765c0.624-0.352,1.843-0.8,3.462-0.8
	c2.97,0,3.892,1.745,3.892,3.832V316.977z M163.312,314.92c-1.464,0-2.585,0.341-2.585,1.395c0,0.711,0.468,1.058,1.092,1.058
	c0.668,0,1.248-0.454,1.434-1.02c0.034-0.146,0.059-0.307,0.059-0.468V314.92z"/>
<path fill="#FFFFFF" d="M172.728,319.117v-2.822h-5.238V314.5l4.458-7.204h3.399v6.932h1.4v2.067h-1.4v2.822H172.728z
	 M172.728,314.228v-2.613c0-0.721,0.035-1.442,0.079-2.214h-0.059c-0.38,0.771-0.717,1.459-1.107,2.214l-1.565,2.574l-0.024,0.039
	H172.728z"/>
<path fill="#FFFFFF" d="M54.45,220.719c-0.478,0.215-1.38,0.415-2.4,0.415c-2.794,0-4.579-1.717-4.579-4.438
	c0-2.526,1.727-4.595,4.95-4.595c0.707,0,1.473,0.122,2.043,0.332l-0.43,1.999c-0.312-0.136-0.795-0.263-1.497-0.263
	c-1.409,0-2.336,1.004-2.312,2.418c0,1.591,1.059,2.42,2.365,2.42c0.634,0,1.132-0.107,1.537-0.283L54.45,220.719z"/>
<polygon fill="#FFFFFF" points="59.02,211.838 58.985,211.838 56.801,212.877 56.352,210.868 59.39,209.449 61.619,209.449 
	61.619,220.934 59.02,220.934 "/>
<path fill="#FFFFFF" d="M67.687,93.02c0.083,1.117,1.175,1.648,2.424,1.648c0.926,0,1.663-0.127,2.39-0.351l0.352,1.813
	c-0.878,0.352-1.956,0.547-3.122,0.547c-2.94,0-4.613-1.707-4.613-4.414c0-2.194,1.36-4.608,4.364-4.608
	c2.79,0,3.853,2.165,3.853,4.312c0,0.453-0.054,0.867-0.093,1.053H67.687z M70.837,91.187c0-0.653-0.283-1.746-1.517-1.746
	c-1.122,0-1.594,1.019-1.663,1.746H70.837z"/>
<polygon fill="#FFFFFF" points="78.036,87.387 77.992,87.387 75.807,88.432 75.368,86.417 78.401,85.002 80.625,85.002 
	80.625,96.482 78.036,96.482 "/>
<path fill="#FFFFFF" d="M397.636,64.777c0.088,1.117,1.181,1.648,2.434,1.648c0.917,0,1.663-0.127,2.38-0.351l0.355,1.813
	c-0.883,0.352-1.961,0.547-3.127,0.547c-2.935,0-4.604-1.707-4.604-4.414c0-2.194,1.356-4.609,4.355-4.609
	c2.79,0,3.858,2.166,3.858,4.312c0,0.453-0.059,0.867-0.088,1.053H397.636z M400.802,62.943c0-0.653-0.293-1.746-1.526-1.746
	c-1.126,0-1.59,1.02-1.658,1.746H400.802z"/>
<path fill="#FFFFFF" d="M404.557,68.24v-1.619l1.482-1.346c2.508-2.244,3.726-3.531,3.766-4.877c0-0.938-0.572-1.678-1.892-1.678
	c-0.991,0-1.859,0.497-2.454,0.956l-0.761-1.932c0.869-0.653,2.209-1.181,3.765-1.181c2.589,0,4.023,1.521,4.023,3.6
	c0,1.932-1.39,3.467-3.053,4.951l-1.063,0.887v0.033h4.326v2.205H404.557z"/>
<path fill="#FFFFFF" d="M416.393,191.681v9.958c0,0.977,0.043,2,0.072,2.576h-2.375l-0.133-1.27h-0.033
	c-0.545,0.976-1.59,1.469-2.697,1.469c-2.053,0-3.692-1.746-3.692-4.434c-0.019-2.912,1.806-4.594,3.864-4.594
	c1.063,0,1.891,0.375,2.287,0.975h0.023v-4.681H416.393z M413.709,199.239c0-0.142-0.013-0.341-0.023-0.478
	c-0.167-0.722-0.747-1.326-1.581-1.326c-1.22,0-1.859,1.092-1.859,2.457c0,1.473,0.728,2.385,1.849,2.385
	c0.771,0,1.39-0.531,1.546-1.291c0.054-0.191,0.067-0.381,0.067-0.615V199.239z"/>
<polygon fill="#FFFFFF" points="421.649,195.123 421.606,195.123 419.416,196.167 418.978,194.147 422.015,192.738 424.238,192.738 
	424.238,204.215 421.649,204.215 "/>
<path fill="#FFFFFF" d="M415.466,287.859v9.967c0,0.967,0.043,1.99,0.073,2.576h-2.374l-0.132-1.273h-0.036
	c-0.545,0.971-1.588,1.469-2.696,1.469c-2.053,0-3.692-1.751-3.692-4.438c-0.019-2.917,1.805-4.59,3.863-4.59
	c1.063,0,1.892,0.371,2.287,0.971h0.025v-4.682H415.466z M412.785,295.428c0-0.146-0.016-0.341-0.025-0.479
	c-0.165-0.73-0.746-1.336-1.581-1.336c-1.218,0-1.857,1.103-1.857,2.469c0,1.457,0.726,2.375,1.848,2.375
	c0.77,0,1.389-0.527,1.545-1.283c0.054-0.205,0.07-0.391,0.07-0.619V295.428z"/>
<path fill="#FFFFFF" d="M417.299,300.402v-1.629l1.478-1.336c2.511-2.244,3.731-3.541,3.761-4.872c0-0.941-0.566-1.683-1.889-1.683
	c-0.984,0-1.853,0.497-2.457,0.951l-0.766-1.927c0.873-0.653,2.214-1.181,3.774-1.181c2.585,0,4.019,1.518,4.019,3.604
	c0,1.927-1.39,3.463-3.053,4.95l-1.063,0.877v0.035h4.331v2.209H417.299z"/>
<path fill="#FFFFFF" d="M415.651,371.697v9.959c0,0.966,0.044,1.99,0.073,2.58h-2.375l-0.132-1.279h-0.035
	c-0.546,0.972-1.589,1.469-2.697,1.469c-2.053,0-3.692-1.75-3.692-4.428c-0.02-2.916,1.805-4.6,3.863-4.6
	c1.063,0,1.892,0.376,2.287,0.971h0.024v-4.672H415.651z M412.969,379.257c0-0.151-0.015-0.341-0.024-0.488
	c-0.165-0.711-0.746-1.325-1.58-1.325c-1.219,0-1.858,1.101-1.858,2.467c0,1.459,0.726,2.38,1.848,2.38
	c0.77,0,1.39-0.531,1.545-1.288c0.054-0.195,0.069-0.39,0.069-0.618V379.257z"/>
<path fill="#FFFFFF" d="M417.954,381.598c0.482,0.244,1.575,0.713,2.667,0.713c1.396,0,2.102-0.674,2.102-1.537
	c0-1.137-1.125-1.648-2.311-1.648h-1.092v-1.922h1.034c0.907-0.023,2.057-0.346,2.057-1.32c0-0.693-0.565-1.21-1.703-1.21
	c-0.936,0-1.916,0.41-2.399,0.691l-0.545-1.94c0.686-0.443,2.062-0.863,3.554-0.863c2.448,0,3.804,1.293,3.804,2.854
	c0,1.229-0.683,2.18-2.102,2.672v0.029c1.38,0.254,2.501,1.297,2.501,2.8c0,2.028-1.79,3.511-4.701,3.511
	c-1.493,0-2.741-0.39-3.414-0.814L417.954,381.598z"/>
<path fill="#FFFFFF" d="M415.096,441.981v9.964c0,0.97,0.043,1.994,0.073,2.58h-2.374l-0.133-1.274h-0.034
	c-0.545,0.972-1.59,1.465-2.696,1.465c-2.054,0-3.692-1.752-3.692-4.435c-0.02-2.916,1.805-4.588,3.863-4.588
	c1.063,0,1.892,0.365,2.287,0.971h0.024v-4.683H415.096z M412.414,449.541c0-0.146-0.016-0.332-0.024-0.479
	c-0.166-0.721-0.746-1.317-1.58-1.317c-1.219,0-1.859,1.094-1.859,2.45c0,1.467,0.727,2.379,1.849,2.379
	c0.771,0,1.389-0.522,1.545-1.278c0.053-0.195,0.069-0.395,0.069-0.624V449.541z"/>
<path fill="#FFFFFF" d="M421.679,454.525v-2.742h-5.091v-1.745l4.345-6.993h3.287v6.73h1.375v2.008h-1.375v2.742H421.679z
	 M421.679,449.775v-2.542c0-0.688,0.03-1.398,0.079-2.141h-0.064c-0.37,0.742-0.677,1.41-1.058,2.141l-1.536,2.502v0.04H421.679z"/>
<path fill="#FFFFFF" d="M415.281,522.919v9.954c0,0.971,0.044,2.003,0.073,2.585h-2.375l-0.132-1.277h-0.033
	c-0.547,0.971-1.591,1.469-2.696,1.469c-2.055,0-3.693-1.746-3.693-4.43c-0.02-2.917,1.805-4.595,3.863-4.595
	c1.063,0,1.893,0.372,2.287,0.977h0.025v-4.683H415.281z M412.6,530.478c0-0.145-0.016-0.335-0.025-0.477
	c-0.165-0.723-0.746-1.322-1.581-1.322c-1.218,0-1.858,1.092-1.858,2.447c0,1.471,0.727,2.386,1.849,2.386
	c0.771,0,1.39-0.526,1.545-1.288c0.054-0.193,0.07-0.389,0.07-0.614V530.478z"/>
<path fill="#FFFFFF" d="M424.771,526.188h-4.448l-0.248,1.766c0.248-0.04,0.463-0.04,0.746-0.04c1.092,0,2.204,0.254,3.014,0.829
	c0.873,0.591,1.4,1.541,1.4,2.883c0,2.137-1.839,4.024-4.926,4.024c-1.4,0-2.571-0.314-3.195-0.654l0.469-2.01
	c0.517,0.254,1.556,0.571,2.599,0.571c1.113,0,2.296-0.531,2.296-1.752c0-1.189-0.936-1.912-3.232-1.912
	c-0.634,0-1.083,0.034-1.557,0.108l0.761-6.018h6.321V526.188z"/>
<path fill="#FFFFFF" d="M414.597,591.376v9.962c0,0.967,0.044,1.985,0.073,2.58h-2.375l-0.132-1.273h-0.035
	c-0.545,0.971-1.589,1.459-2.697,1.459c-2.053,0-3.691-1.746-3.691-4.428c-0.02-2.917,1.804-4.589,3.862-4.589
	c1.064,0,1.892,0.365,2.287,0.965h0.025v-4.676H414.597z M411.916,598.934c0-0.146-0.015-0.342-0.025-0.478
	c-0.165-0.722-0.746-1.326-1.58-1.326c-1.219,0-1.858,1.102-1.858,2.459c0,1.462,0.728,2.38,1.848,2.38
	c0.77,0,1.39-0.522,1.546-1.284c0.053-0.2,0.068-0.396,0.068-0.625V598.934z"/>
<path fill="#FFFFFF" d="M423.756,594.34c-0.298,0-0.62,0-1.044,0.039c-2.38,0.186-3.443,1.41-3.74,2.751h0.044
	c0.575-0.585,1.36-0.918,2.438-0.918c1.932,0,3.561,1.357,3.561,3.747c0,2.272-1.756,4.145-4.239,4.145
	c-3.062,0-4.559-2.272-4.559-5.014c0-2.15,0.791-3.955,2.024-5.102c1.15-1.043,2.634-1.608,4.437-1.695
	c0.498-0.04,0.811-0.04,1.079-0.021V594.34z M420.752,602.134c0.931,0,1.541-0.874,1.541-2.039c0-1.054-0.565-1.971-1.716-1.971
	c-0.723,0-1.327,0.439-1.589,1.024c-0.074,0.137-0.109,0.352-0.109,0.663c0.049,1.22,0.634,2.322,1.854,2.322H420.752z"/>
<path fill="#FFFFFF" d="M340.746,643.729v9.968c0,0.965,0.034,1.985,0.068,2.574h-2.385l-0.117-1.268h-0.039
	c-0.551,0.971-1.589,1.458-2.697,1.458c-2.058,0-3.696-1.746-3.696-4.429c-0.019-2.916,1.795-4.588,3.868-4.588
	c1.063,0,1.887,0.366,2.273,0.966h0.043v-4.682H340.746z M338.063,651.287c0-0.142-0.014-0.341-0.043-0.479
	c-0.156-0.721-0.737-1.326-1.571-1.326c-1.219,0-1.854,1.103-1.854,2.458c0,1.463,0.728,2.385,1.838,2.385
	c0.776,0,1.4-0.521,1.556-1.282c0.06-0.2,0.074-0.4,0.074-0.625V651.287z"/>
<polygon fill="#FFFFFF" points="350.796,644.786 350.796,646.483 346.066,656.271 343.213,656.271 347.949,647.029 347.949,646.995 
	342.691,646.995 342.691,644.786 "/>
<path fill="#FFFFFF" d="M154.762,655.396c-0.468,0.205-1.375,0.41-2.399,0.41c-2.789,0-4.569-1.722-4.569-4.438
	c0-2.521,1.731-4.595,4.94-4.595c0.711,0,1.482,0.129,2.053,0.342l-0.419,1.995c-0.327-0.141-0.795-0.263-1.506-0.263
	c-1.419,0-2.327,1-2.312,2.414c0,1.59,1.059,2.429,2.37,2.429c0.634,0,1.122-0.117,1.531-0.284L154.762,655.396z"/>
<polygon fill="#FFFFFF" points="164.145,644.129 164.145,645.822 159.415,655.601 156.566,655.601 161.307,646.368 161.307,646.344 
	156.04,646.344 156.04,644.129 "/>
<path fill="#FFFFFF" d="M103.351,655.396c-0.478,0.205-1.38,0.41-2.4,0.41c-2.799,0-4.58-1.722-4.58-4.438
	c0-2.521,1.732-4.595,4.951-4.595c0.707,0,1.482,0.129,2.043,0.342l-0.419,1.995c-0.323-0.141-0.795-0.263-1.498-0.263
	c-1.419,0-2.336,1-2.321,2.414c0,1.59,1.059,2.429,2.37,2.429c0.629,0,1.126-0.117,1.531-0.284L103.351,655.396z"/>
<path fill="#FFFFFF" d="M111.826,646.037c-0.302,0-0.614,0-1.039,0.034c-2.385,0.194-3.448,1.405-3.745,2.751h0.053
	c0.562-0.575,1.366-0.918,2.434-0.918c1.927,0,3.56,1.365,3.56,3.746c0,2.277-1.756,4.155-4.248,4.155
	c-3.052,0-4.555-2.282-4.555-5.023c0-2.146,0.795-3.95,2.029-5.102c1.151-1.044,2.634-1.605,4.438-1.697
	c0.487-0.028,0.81-0.028,1.073-0.01V646.037z M108.827,653.826c0.941,0,1.536-0.859,1.536-2.035c0-1.062-0.57-1.974-1.717-1.974
	c-0.722,0-1.322,0.439-1.584,1.014c-0.074,0.151-0.107,0.365-0.107,0.683c0.048,1.214,0.633,2.312,1.853,2.312H108.827z"/>
<path fill="#FFFFFF" d="M52.778,651.32c-0.474,0.205-1.376,0.41-2.404,0.41c-2.785,0-4.57-1.721-4.57-4.438
	c0-2.521,1.731-4.593,4.945-4.593c0.702,0,1.482,0.127,2.053,0.341l-0.429,1.995c-0.317-0.142-0.795-0.265-1.502-0.265
	c-1.415,0-2.331,1.001-2.317,2.414c0,1.591,1.068,2.429,2.371,2.429c0.633,0,1.131-0.116,1.536-0.281L52.778,651.32z"/>
<path fill="#FFFFFF" d="M61.585,642.27h-4.442l-0.254,1.755c0.254-0.033,0.468-0.033,0.751-0.033c1.093,0,2.2,0.248,3.009,0.834
	c0.868,0.575,1.404,1.536,1.404,2.877c0,2.138-1.843,4.028-4.931,4.028c-1.399,0-2.56-0.322-3.204-0.653l0.487-2.018
	c0.508,0.247,1.551,0.563,2.595,0.563c1.107,0,2.301-0.526,2.301-1.745c0-1.18-0.936-1.907-3.237-1.907
	c-0.64,0-1.079,0.035-1.557,0.103l0.761-6.017h6.315V642.27z"/>
<path fill="#FFFFFF" d="M53.764,437.746c-0.479,0.209-1.381,0.399-2.399,0.399c-2.79,0-4.575-1.707-4.575-4.428
	c0-2.526,1.736-4.595,4.94-4.595c0.712,0,1.488,0.128,2.049,0.336l-0.415,1.995c-0.326-0.141-0.799-0.263-1.502-0.263
	c-1.419,0-2.335,1.005-2.316,2.414c0,1.596,1.058,2.423,2.365,2.423c0.629,0,1.127-0.103,1.541-0.281L53.764,437.746z"/>
<path fill="#FFFFFF" d="M55.392,435.322c0.468,0.249,1.57,0.706,2.663,0.706c1.4,0,2.102-0.672,2.102-1.535
	c0-1.127-1.126-1.645-2.311-1.645h-1.103v-1.925h1.048c0.897-0.024,2.048-0.348,2.048-1.322c0-0.688-0.561-1.2-1.692-1.2
	c-0.936,0-1.931,0.406-2.404,0.693l-0.546-1.951c0.688-0.438,2.063-0.862,3.545-0.862c2.458,0,3.819,1.291,3.819,2.862
	c0,1.219-0.692,2.17-2.097,2.667v0.034c1.375,0.244,2.482,1.288,2.482,2.79c0,2.028-1.78,3.511-4.696,3.511
	c-1.478,0-2.735-0.39-3.409-0.81L55.392,435.322z"/>
<path fill="#FFFFFF" d="M53.949,527.521c-0.478,0.21-1.38,0.403-2.399,0.403c-2.79,0-4.575-1.71-4.575-4.427
	c0-2.526,1.737-4.604,4.94-4.604c0.712,0,1.487,0.126,2.049,0.342l-0.416,1.999c-0.326-0.146-0.799-0.264-1.502-0.264
	c-1.419,0-2.336,0.994-2.316,2.409c0,1.6,1.059,2.418,2.366,2.418c0.629,0,1.126-0.098,1.541-0.272L53.949,527.521z"/>
<path fill="#FFFFFF" d="M59.854,527.731v-2.74h-5.091v-1.747l4.345-6.993h3.287v6.73h1.375v2.01h-1.375v2.74H59.854z
	 M59.854,522.981v-2.546c0-0.688,0.024-1.395,0.083-2.137H59.87c-0.372,0.742-0.669,1.415-1.069,2.137l-1.531,2.506v0.04H59.854z"/>
<path fill="#634E42" d="M232.443,169.591v-6.662h-1.126v-1.979h1.126v-0.332c0-1.043,0.322-2.186,1.097-2.896
	c0.673-0.639,1.61-0.867,2.385-0.867c0.6,0,1.054,0.072,1.435,0.174l-0.108,2.068c-0.229-0.068-0.512-0.117-0.868-0.117
	c-0.877,0-1.253,0.683-1.253,1.531v0.439h1.731v1.979h-1.711v6.662H232.443z"/>
<path fill="#634E42" d="M237.832,169.591v-1.629l1.482-1.341c2.507-2.244,3.726-3.536,3.766-4.877c0-0.937-0.572-1.674-1.898-1.674
	c-0.98,0-1.843,0.488-2.448,0.946l-0.761-1.921c0.869-0.653,2.209-1.186,3.765-1.186c2.594,0,4.023,1.518,4.023,3.604
	c0,1.927-1.399,3.468-3.062,4.95l-1.049,0.883v0.029h4.321v2.214H237.832z"/>
<path fill="#FFFFFF" d="M132.592,85.641h2.683v4.924h0.034c0.512-0.74,1.415-1.214,2.615-1.214c2.062,0,3.584,1.712,3.57,4.355
	c0,3.11-1.98,4.662-3.96,4.662c-1.009,0-1.975-0.366-2.599-1.396h-0.029l-0.107,1.209h-2.277c0.034-0.569,0.073-1.608,0.073-2.578
	V85.641z M135.274,94.506c0,0.176,0.015,0.342,0.054,0.478c0.17,0.728,0.795,1.272,1.57,1.272c1.151,0,1.853-0.887,1.853-2.443
	c0-1.34-0.594-2.398-1.853-2.398c-0.722,0-1.4,0.546-1.57,1.321c-0.039,0.16-0.054,0.317-0.054,0.497V94.506z"/>
<polygon fill="#FFFFFF" points="146.247,89.082 146.204,89.082 144.019,90.126 143.58,88.117 146.613,86.693 148.836,86.693 
	148.836,98.182 146.247,98.182 "/>
<path fill="#FFFFFF" d="M322.66,84.528h2.692v4.926h0.034c0.512-0.741,1.41-1.214,2.614-1.214c2.063,0,3.584,1.711,3.565,4.354
	c0,3.111-1.976,4.662-3.955,4.662c-1.009,0-1.98-0.366-2.6-1.395h-0.033l-0.098,1.21h-2.287c0.043-0.571,0.068-1.609,0.068-2.581
	V84.528z M325.352,93.395c0,0.176,0.015,0.342,0.049,0.479c0.18,0.726,0.795,1.271,1.575,1.271c1.146,0,1.854-0.887,1.854-2.442
	c0-1.342-0.6-2.399-1.854-2.399c-0.722,0-1.395,0.546-1.575,1.321c-0.034,0.161-0.049,0.317-0.049,0.498V93.395z"/>
<path fill="#FFFFFF" d="M332.891,97.072v-1.63l1.482-1.341c2.511-2.244,3.73-3.525,3.76-4.877c0-0.936-0.565-1.673-1.887-1.673
	c-0.995,0-1.853,0.487-2.458,0.946l-0.755-1.922c0.858-0.653,2.205-1.186,3.76-1.186c2.599,0,4.023,1.518,4.023,3.605
	c0,1.926-1.39,3.462-3.048,4.949l-1.068,0.883v0.029h4.331v2.215H332.891z"/>
<path fill="#FFFFFF" d="M175.727,49.152h2.019v3.707h0.029c0.385-0.555,1.061-0.921,1.967-0.921c1.557,0,2.698,1.296,2.684,3.288
	c0,2.343-1.487,3.511-2.977,3.511c-0.753,0-1.491-0.28-1.949-1.05h-0.034l-0.073,0.902h-1.722c0.033-0.426,0.055-1.204,0.055-1.941
	V49.152z M177.746,55.826c0,0.131,0.015,0.253,0.04,0.355c0.128,0.551,0.599,0.961,1.187,0.961c0.862,0,1.391-0.668,1.391-1.834
	c0-1.014-0.448-1.807-1.391-1.807c-0.544,0-1.058,0.411-1.187,0.99c-0.025,0.126-0.04,0.243-0.04,0.376V55.826z"/>
<path fill="#FFFFFF" d="M183.781,56.607c0.363,0.191,1.186,0.535,2.008,0.535c1.05,0,1.582-0.506,1.582-1.158
	c0-0.849-0.848-1.234-1.74-1.234h-0.822v-1.453h0.785c0.68-0.008,1.538-0.262,1.538-0.992c0-0.521-0.422-0.902-1.277-0.902
	c-0.705,0-1.447,0.301-1.807,0.514l-0.411-1.461c0.518-0.338,1.557-0.653,2.672-0.653c1.847,0,2.875,0.969,2.875,2.155
	c0,0.921-0.518,1.633-1.589,2.008v0.029c1.039,0.18,1.875,0.965,1.875,2.1c0,1.527-1.34,2.644-3.532,2.644
	c-1.119,0-2.059-0.286-2.57-0.61L183.781,56.607z"/>
<path fill="#634E42" d="M230.877,572.613v-6.983h-1.205v-2.074h1.205v-0.352c0-1.094,0.333-2.298,1.129-3.038
	c0.722-0.667,1.686-0.906,2.519-0.906c0.611,0,1.093,0.092,1.482,0.184l-0.111,2.167c-0.241-0.074-0.538-0.13-0.907-0.13
	c-0.926,0-1.315,0.724-1.315,1.612v0.463h1.815v2.074h-1.796v6.983H230.877z"/>
<path fill="#634E42" d="M240.101,563.073h-0.037l-2.297,1.093l-0.463-2.111l3.205-1.48h2.315v12.039h-2.722V563.073z"/>
<path fill="#FFFFFF" d="M45.402,599.786c-0.4,0.191-1.156,0.34-2.015,0.34c-2.341,0-3.837-1.438-3.837-3.719
	c0-2.119,1.452-3.852,4.149-3.852c0.592,0,1.244,0.103,1.718,0.28l-0.355,1.675c-0.267-0.119-0.667-0.223-1.259-0.223
	c-1.186,0-1.956,0.845-1.941,2.03c0,1.334,0.889,2.045,1.986,2.045c0.534,0,0.948-0.09,1.289-0.236L45.402,599.786z"/>
<path fill="#FFFFFF" d="M52.513,591.933c-0.251-0.015-0.518,0-0.874,0.029c-2,0.149-2.889,1.186-3.141,2.297h0.044
	c0.474-0.475,1.156-0.756,2.045-0.756c1.615,0,2.979,1.141,2.979,3.142c0,1.911-1.468,3.481-3.542,3.481
	c-2.579,0-3.838-1.912-3.838-4.209c0-1.807,0.667-3.317,1.719-4.296c0.948-0.874,2.208-1.333,3.704-1.407
	c0.415-0.045,0.697-0.029,0.904-0.015V591.933z M49.994,598.467c0.786,0,1.289-0.727,1.289-1.704c0-0.889-0.474-1.659-1.437-1.659
	c-0.608,0-1.112,0.37-1.319,0.844c-0.074,0.133-0.104,0.312-0.104,0.578c0.044,1.022,0.533,1.941,1.555,1.941H49.994z"/>
<path fill="#FFFFFF" d="M54.869,595.148c0-0.949-0.029-1.75-0.059-2.43h1.956l0.104,1.007h0.029c0.534-0.755,1.363-1.17,2.415-1.17
	c1.586,0,3.008,1.378,3.008,3.688c0,2.637-1.674,3.882-3.289,3.882c-0.874,0-1.555-0.355-1.882-0.829h-0.029v3.601h-2.252V595.148z
	 M57.121,596.852c0,0.178,0.015,0.326,0.044,0.474c0.148,0.608,0.667,1.067,1.318,1.067c0.979,0,1.556-0.814,1.556-2.044
	c0-1.157-0.518-2.029-1.526-2.029c-0.637,0-1.2,0.473-1.348,1.139c-0.03,0.12-0.044,0.268-0.044,0.401V596.852z"/>
<path fill="#FFFFFF" d="M69.759,598.214c0,0.683,0.029,1.351,0.119,1.749h-2.03l-0.133-0.726H67.67
	c-0.474,0.577-1.215,0.889-2.075,0.889c-1.466,0-2.34-1.067-2.34-2.223c0-1.881,1.688-2.771,4.252-2.771v-0.089
	c0-0.386-0.208-0.934-1.319-0.934c-0.741,0-1.526,0.253-2,0.533l-0.415-1.437c0.503-0.281,1.497-0.651,2.814-0.651
	c2.416,0,3.171,1.422,3.171,3.124V598.214z M67.581,596.54c-1.186,0-2.104,0.282-2.104,1.142c0,0.578,0.385,0.859,0.889,0.859
	c0.548,0,1.022-0.37,1.17-0.83c0.03-0.119,0.044-0.252,0.044-0.386V596.54z"/>
<path fill="#FFFFFF" d="M49.423,312.664c-0.468,0.225-1.35,0.398-2.355,0.398c-2.735,0-4.483-1.68-4.483-4.327
	c0-2.475,1.696-4.5,4.848-4.5c0.693,0,1.454,0.122,2.008,0.329l-0.415,1.955c-0.312-0.139-0.779-0.259-1.472-0.259
	c-1.385,0-2.285,0.986-2.268,2.37c0,1.541,1.039,2.371,2.32,2.371c0.624,0,1.108-0.104,1.506-0.276L49.423,312.664z"/>
<path fill="#FFFFFF" d="M50.567,312.889v-1.592l1.437-1.298c2.476-2.216,3.671-3.479,3.688-4.794c0-0.917-0.537-1.645-1.836-1.645
	c-0.969,0-1.818,0.484-2.406,0.917l-0.744-1.868c0.831-0.641,2.164-1.16,3.67-1.16c2.562,0,3.947,1.488,3.947,3.514
	c0,1.902-1.35,3.408-2.995,4.863l-1.039,0.865v0.034h4.259v2.163H50.567z"/>
<path fill="#FFFFFF" d="M67.535,310.848c0,0.795,0.035,1.574,0.139,2.041h-2.373l-0.156-0.847h-0.052
	c-0.554,0.675-1.419,1.037-2.424,1.037c-1.714,0-2.735-1.245-2.735-2.596c0-2.198,1.974-3.236,4.969-3.236v-0.104
	c0-0.467-0.242-1.107-1.541-1.107c-0.866,0-1.783,0.295-2.338,0.641l-0.485-1.696c0.589-0.329,1.749-0.761,3.29-0.761
	c2.823,0,3.705,1.661,3.705,3.668V310.848z M64.99,308.891c-1.385,0-2.458,0.329-2.458,1.333c0,0.675,0.45,1.004,1.039,1.004
	c0.64,0,1.194-0.433,1.368-0.969c0.035-0.139,0.052-0.294,0.052-0.45V308.891z"/>
<path fill="#FFFFFF" d="M49.053,371.611c-0.468,0.225-1.351,0.397-2.354,0.397c-2.736,0-4.485-1.679-4.485-4.328
	c0-2.477,1.697-4.502,4.849-4.502c0.692,0,1.455,0.121,2.008,0.329l-0.416,1.956c-0.312-0.139-0.779-0.26-1.472-0.26
	c-1.385,0-2.286,0.987-2.269,2.372c0,1.541,1.04,2.373,2.321,2.373c0.623,0,1.108-0.104,1.506-0.277L49.053,371.611z"/>
<path fill="#FFFFFF" d="M50.196,371.836v-1.594l1.438-1.299c2.476-2.215,3.67-3.479,3.688-4.795c0-0.918-0.536-1.645-1.835-1.645
	c-0.97,0-1.818,0.484-2.406,0.917l-0.745-1.87c0.832-0.641,2.165-1.16,3.671-1.16c2.562,0,3.948,1.489,3.948,3.516
	c0,1.904-1.351,3.41-2.995,4.865l-1.039,0.865v0.035h4.259v2.164H50.196z"/>
<path fill="#FFFFFF" d="M60.118,359.543h2.632v4.83h0.034c0.502-0.727,1.386-1.194,2.563-1.194c2.025,0,3.498,1.679,3.48,4.276
	c0,3.048-1.921,4.571-3.861,4.571c-0.987,0-1.957-0.363-2.545-1.368h-0.035l-0.104,1.178h-2.234
	c0.035-0.554,0.069-1.575,0.069-2.528V359.543z M62.75,368.234c0,0.174,0.017,0.329,0.051,0.468
	c0.174,0.692,0.779,1.247,1.542,1.247c1.125,0,1.818-0.866,1.818-2.391c0-1.315-0.589-2.354-1.818-2.354
	c-0.71,0-1.368,0.536-1.542,1.299c-0.034,0.155-0.051,0.312-0.051,0.485V368.234z"/>
<path fill="none" d="M216.809,55.227c0.019-1.992-1.126-3.288-2.688-3.288c-0.903,0-1.578,0.366-1.963,0.921h-0.025v-3.707h-2.023
	v7.496c0,0.737-0.026,1.516-0.059,1.941h1.722l0.074-0.902h0.033c0.459,0.77,1.197,1.05,1.957,1.05
	C215.318,58.737,216.809,57.569,216.809,55.227z M212.168,56.182c-0.021-0.103-0.036-0.225-0.036-0.355v-0.958
	c0-0.133,0.014-0.25,0.036-0.376c0.141-0.579,0.639-0.99,1.186-0.99c0.94,0,1.399,0.793,1.399,1.807
	c0,1.166-0.532,1.834-1.399,1.834C212.767,57.143,212.309,56.732,212.168,56.182z"/>
<path fill="none" d="M221.383,58.59h1.92v-2.059h1.035v-1.517h-1.035v-5.066h-2.478l-3.271,5.269v1.314h3.829V58.59z
	 M219.445,55.015v-0.03l1.152-1.887c0.294-0.543,0.522-1.042,0.805-1.607h0.047c-0.037,0.565-0.066,1.094-0.066,1.607v1.917H219.445
	z"/>
<path fill="none" d="M284.648,55.629c0-0.951-0.377-1.631-0.996-2.043c-0.574-0.415-1.359-0.588-2.134-0.588
	c-0.201,0-0.353,0-0.529,0.024l0.176-1.255h3.151v-1.564h-4.479l-0.543,4.275c0.343-0.053,0.654-0.076,1.107-0.076
	c1.632,0,2.296,0.512,2.296,1.352c0,0.861-0.848,1.238-1.632,1.238c-0.74,0-1.48-0.225-1.843-0.398l-0.335,1.426
	c0.449,0.234,1.272,0.463,2.269,0.463C283.345,58.482,284.648,57.145,284.648,55.629z"/>
<path fill="none" d="M277.946,55.177c0.01-1.878-1.069-3.099-2.528-3.099c-0.855,0-1.495,0.346-1.857,0.867h-0.024v-3.492h-1.902
	v7.062c0,0.694-0.027,1.428-0.051,1.828h1.611l0.08-0.85h0.031c0.432,0.727,1.117,0.988,1.833,0.988
	C276.542,58.482,277.946,57.383,277.946,55.177z M274.695,56.982c-0.553,0-0.999-0.389-1.117-0.906
	c-0.031-0.098-0.042-0.211-0.042-0.336v-0.902c0-0.125,0.011-0.235,0.042-0.354c0.118-0.546,0.602-0.934,1.117-0.934
	c0.885,0,1.308,0.748,1.308,1.701C276.002,56.352,275.505,56.982,274.695,56.982z"/>
<rect x="209.581" y="99.831" fill="#F39200" width="0.002" height="3.687"/>
<path fill="#F9AE00" d="M221.383,53.098c0-0.514,0.029-1.042,0.066-1.607h-0.047c-0.283,0.565-0.51,1.064-0.805,1.607l-1.152,1.887
	v0.03h1.938V53.098z"/>
<path fill="#F9AE00" d="M214.753,55.309c0-1.014-0.459-1.807-1.399-1.807c-0.547,0-1.045,0.411-1.186,0.99
	c-0.021,0.126-0.036,0.243-0.036,0.376v0.958c0,0.131,0.014,0.253,0.036,0.355c0.141,0.551,0.599,0.961,1.186,0.961
	C214.221,57.143,214.753,56.475,214.753,55.309z"/>
<path fill="#F9AE00" d="M213.27,78.334h20.127V29.625h-35.108v48.709h11.294v0.043h3.687V78.334z M217.554,55.217l3.271-5.269h2.478
	v5.066h1.035v1.517h-1.035v2.059h-1.92v-2.059h-3.829V55.217z M211.878,57.688h-0.033l-0.074,0.902h-1.722
	c0.033-0.426,0.059-1.204,0.059-1.941v-7.496h2.023v3.707h0.025c0.386-0.555,1.061-0.921,1.963-0.921
	c1.561,0,2.706,1.296,2.688,3.288c0,2.343-1.49,3.511-2.973,3.511C213.075,58.737,212.337,58.457,211.878,57.688z"/>
<polygon fill="#F39200" points="271.903,99.831 213.27,99.831 213.27,78.377 209.583,78.377 209.583,99.831 209.583,103.518 
	209.583,103.523 213.27,103.523 213.27,103.518 271.903,103.518 271.903,103.52 275.59,103.52 275.59,78.377 271.903,78.377 "/>
<path fill="#1D1D1B" d="M303.662,78.395l0.146-48.708H251.4l-0.098,48.617l20.601,0.036v0.037h3.687v-0.031L303.662,78.395z
	 M279.222,56.594c0.363,0.174,1.103,0.398,1.843,0.398c0.785,0,1.632-0.377,1.632-1.238c0-0.84-0.664-1.352-2.296-1.352
	c-0.453,0-0.764,0.023-1.107,0.076l0.543-4.275h4.479v1.564h-3.151l-0.176,1.255c0.176-0.024,0.328-0.024,0.529-0.024
	c0.775,0,1.56,0.173,2.134,0.588c0.619,0.412,0.996,1.092,0.996,2.043c0,1.516-1.303,2.854-3.493,2.854
	c-0.996,0-1.819-0.229-2.269-0.463L279.222,56.594z M273.305,57.494h-0.031l-0.08,0.85h-1.611c0.024-0.4,0.051-1.134,0.051-1.828
	v-7.062h1.902v3.492h0.024c0.363-0.521,1.002-0.867,1.857-0.867c1.459,0,2.538,1.221,2.528,3.099c0,2.206-1.404,3.306-2.809,3.306
	C274.422,58.482,273.737,58.221,273.305,57.494z"/>
<path fill="#1D1D1B" d="M274.695,53.551c-0.515,0-0.999,0.388-1.117,0.934c-0.031,0.118-0.042,0.229-0.042,0.354v0.902
	c0,0.125,0.011,0.238,0.042,0.336c0.118,0.518,0.563,0.906,1.117,0.906c0.81,0,1.308-0.631,1.308-1.73
	C276.002,54.299,275.58,53.551,274.695,53.551z"/>
<path fill="#1D1D1B" d="M436.29,619.671h-41.606v26.65h41.606V619.671z M406.565,638.508l-0.074-0.878h-0.038
	c-0.37,0.669-1.112,1.015-1.891,1.015c-1.434,0-2.583-1.225-2.583-3.104c-0.013-2.026,1.26-3.212,2.707-3.212
	c0.753,0,1.322,0.271,1.594,0.68h0.024v-3.275h1.88v6.971c0,0.693,0.024,1.396,0.05,1.805H406.565z M412.511,638.645
	c-2.151,0-3.202-1.596-3.202-3.511c0-1.509,0.557-2.77,1.433-3.585c0.792-0.729,1.842-1.113,3.09-1.174
	c0.347-0.038,0.582-0.025,0.755-0.014v1.447c-0.21-0.013-0.432,0-0.729,0.024c-1.669,0.124-2.41,0.989-2.621,1.916h0.037
	c0.396-0.396,0.964-0.631,1.706-0.631c1.348,0,2.485,0.952,2.485,2.622C415.465,637.333,414.24,638.645,412.511,638.645z
	 M420.025,638.645c-0.729,0-1.298-0.298-1.57-0.693h-0.025v3.004h-1.879v-6.466c0-0.79-0.024-1.457-0.049-2.026h1.632l0.086,0.842
	h0.024c0.445-0.631,1.137-0.977,2.015-0.977c1.322,0,2.509,1.149,2.509,3.077C422.77,637.605,421.372,638.645,420.025,638.645z
	 M427.268,637.902h-0.038c-0.395,0.482-1.012,0.742-1.729,0.742c-1.224,0-1.953-0.892-1.953-1.854c0-1.57,1.409-2.312,3.547-2.312
	v-0.074c0-0.32-0.173-0.778-1.1-0.778c-0.619,0-1.274,0.211-1.669,0.445l-0.346-1.199c0.42-0.234,1.249-0.543,2.349-0.543
	c2.014,0,2.645,1.186,2.645,2.607v2.113c0,0.569,0.026,1.125,0.099,1.459h-1.692L427.268,637.902z"/>
<path fill="#1D1D1B" d="M419.593,633.798c-0.532,0-1.001,0.396-1.125,0.952c-0.024,0.099-0.038,0.223-0.038,0.334v0.828
	c0,0.148,0.013,0.271,0.038,0.396c0.124,0.507,0.557,0.89,1.1,0.89c0.817,0,1.299-0.679,1.299-1.705
	C420.867,634.527,420.433,633.798,419.593,633.798z"/>
<path fill="#0052A1" d="M405.181,657.515c-0.865,0-1.298,0.767-1.298,1.718c0,1.015,0.507,1.656,1.286,1.656
	c0.543,0,0.988-0.37,1.1-0.901c0.024-0.123,0.037-0.271,0.037-0.421v-0.79c0-0.112,0-0.234-0.024-0.346
	C406.169,657.923,405.762,657.515,405.181,657.515z"/>
<path fill="#1D1D1B" d="M425.401,636.604c0,0.483,0.321,0.717,0.743,0.717c0.457,0,0.852-0.308,0.975-0.691
	c0.024-0.099,0.038-0.209,0.038-0.321v-0.654C426.168,635.653,425.401,635.888,425.401,636.604z"/>
<path fill="#1D1D1B" d="M405.181,633.773c-0.865,0-1.298,0.766-1.298,1.719c0,1.013,0.507,1.656,1.286,1.656
	c0.543,0,0.988-0.371,1.1-0.903c0.024-0.123,0.037-0.271,0.037-0.42v-0.79c0-0.112,0-0.236-0.024-0.347
	C406.169,634.182,405.762,633.773,405.181,633.773z"/>
<path fill="#1D1D1B" d="M412.362,634.453c-0.508,0-0.928,0.31-1.101,0.704c-0.061,0.112-0.086,0.262-0.086,0.483
	c0.038,0.854,0.444,1.619,1.298,1.619h0.012c0.655,0,1.075-0.606,1.075-1.422C413.561,635.096,413.166,634.453,412.362,634.453z"/>
<path fill="#0052A1" d="M426.96,657.515c-0.508,0-0.977,0.384-1.101,0.928c-0.024,0.112-0.038,0.222-0.038,0.346v0.891
	c0,0.123,0.013,0.234,0.038,0.334c0.125,0.494,0.557,0.89,1.101,0.89c0.802,0,1.297-0.619,1.297-1.706
	C428.257,658.258,427.838,657.515,426.96,657.515z"/>
<path fill="#0052A1" d="M419.593,657.539c-0.532,0-1.001,0.396-1.125,0.953c-0.024,0.098-0.038,0.223-0.038,0.333v0.829
	c0,0.147,0.013,0.271,0.038,0.396c0.124,0.507,0.557,0.889,1.1,0.889c0.817,0,1.299-0.68,1.299-1.706
	C420.867,658.27,420.433,657.539,419.593,657.539z"/>
<path fill="#0052A1" d="M394.684,646.321v26.653h41.606v-26.653H394.684z M406.565,662.249l-0.074-0.877h-0.038
	c-0.37,0.667-1.112,1.013-1.891,1.013c-1.434,0-2.583-1.224-2.583-3.103c-0.013-2.027,1.26-3.213,2.707-3.213
	c0.753,0,1.322,0.271,1.594,0.68h0.024v-3.275h1.88v6.971c0,0.691,0.024,1.397,0.05,1.805H406.565z M412.511,662.385
	c-2.151,0-3.202-1.594-3.202-3.51c0-1.509,0.557-2.77,1.433-3.585c0.792-0.729,1.842-1.112,3.09-1.174
	c0.347-0.037,0.582-0.024,0.755-0.014v1.447c-0.21-0.013-0.432,0-0.729,0.025c-1.669,0.123-2.41,0.987-2.621,1.916h0.037
	c0.396-0.396,0.964-0.631,1.706-0.631c1.348,0,2.485,0.951,2.485,2.621C415.465,661.075,414.24,662.385,412.511,662.385z
	 M420.025,662.385c-0.729,0-1.298-0.297-1.57-0.691h-0.025v3.003h-1.879v-6.465c0-0.79-0.024-1.458-0.049-2.026h1.632l0.086,0.841
	h0.024c0.445-0.631,1.137-0.977,2.015-0.977c1.322,0,2.509,1.149,2.509,3.077C422.77,661.347,421.372,662.385,420.025,662.385z
	 M427.404,662.385c-0.705,0-1.396-0.259-1.817-0.977h-0.025l-0.073,0.841h-1.595c0.024-0.396,0.05-1.125,0.05-1.805v-6.971h1.877
	v3.448h0.025c0.359-0.519,0.989-0.853,1.83-0.853c1.446,0,2.497,1.199,2.484,3.053C430.161,661.298,428.789,662.385,427.404,662.385
	z"/>
<path fill="#0052A1" d="M412.362,658.195c-0.508,0-0.928,0.31-1.101,0.704c-0.061,0.111-0.086,0.26-0.086,0.481
	c0.038,0.854,0.444,1.62,1.298,1.62h0.012c0.655,0,1.075-0.605,1.075-1.423C413.561,658.838,413.166,658.195,412.362,658.195z"/>
<path fill="#FFFFFF" d="M408.185,629.732h-1.88v3.275h-0.024c-0.271-0.408-0.84-0.68-1.594-0.68c-1.447,0-2.72,1.186-2.707,3.212
	c0,1.88,1.149,3.104,2.583,3.104c0.779,0,1.521-0.346,1.891-1.015h0.038l0.074,0.878h1.669c-0.025-0.408-0.05-1.111-0.05-1.805
	V629.732z M406.305,635.825c0,0.148-0.012,0.297-0.037,0.42c-0.112,0.532-0.556,0.903-1.1,0.903c-0.779,0-1.286-0.644-1.286-1.656
	c0-0.953,0.433-1.719,1.298-1.719c0.581,0,0.989,0.408,1.1,0.915c0.024,0.11,0.024,0.234,0.024,0.347V635.825z"/>
<path fill="#FFFFFF" d="M412.98,633.118c-0.742,0-1.311,0.235-1.706,0.631h-0.037c0.21-0.927,0.951-1.792,2.621-1.916
	c0.297-0.024,0.519-0.037,0.729-0.024v-1.447c-0.173-0.012-0.408-0.024-0.755,0.014c-1.248,0.061-2.298,0.444-3.09,1.174
	c-0.876,0.815-1.433,2.076-1.433,3.585c0,1.915,1.051,3.511,3.202,3.511c1.729,0,2.954-1.312,2.954-2.904
	C415.465,634.07,414.328,633.118,412.98,633.118z M412.485,637.26h-0.012c-0.854,0-1.26-0.766-1.298-1.619
	c0-0.222,0.025-0.371,0.086-0.483c0.173-0.395,0.593-0.704,1.101-0.704c0.804,0,1.198,0.643,1.198,1.385
	C413.561,636.653,413.141,637.26,412.485,637.26z"/>
<path fill="#FFFFFF" d="M420.26,632.328c-0.878,0-1.57,0.346-2.015,0.977h-0.024l-0.086-0.842h-1.632
	c0.024,0.569,0.049,1.236,0.049,2.026v6.466h1.879v-3.004h0.025c0.271,0.396,0.84,0.693,1.57,0.693c1.347,0,2.744-1.039,2.744-3.239
	C422.77,633.478,421.583,632.328,420.26,632.328z M419.567,637.197c-0.543,0-0.976-0.383-1.1-0.89
	c-0.024-0.124-0.038-0.247-0.038-0.396v-0.828c0-0.111,0.013-0.235,0.038-0.334c0.124-0.557,0.593-0.952,1.125-0.952
	c0.84,0,1.274,0.729,1.274,1.694C420.867,636.519,420.384,637.197,419.567,637.197z"/>
<path fill="#FFFFFF" d="M428.974,637.049v-2.113c0-1.422-0.63-2.607-2.645-2.607c-1.101,0-1.929,0.309-2.349,0.543l0.346,1.199
	c0.396-0.234,1.051-0.445,1.669-0.445c0.926,0,1.1,0.458,1.1,0.778v0.074c-2.139,0-3.547,0.742-3.547,2.312
	c0,0.963,0.729,1.854,1.953,1.854c0.717,0,1.334-0.26,1.729-0.742h0.038l0.112,0.605h1.692
	C429,638.174,428.974,637.618,428.974,637.049z M427.157,636.308c0,0.112-0.014,0.223-0.038,0.321
	c-0.123,0.384-0.519,0.691-0.975,0.691c-0.421,0-0.743-0.233-0.743-0.717c0-0.716,0.767-0.95,1.756-0.95V636.308z"/>
<path fill="#FFFFFF" d="M408.185,653.474h-1.88v3.275h-0.024c-0.271-0.408-0.84-0.68-1.594-0.68c-1.447,0-2.72,1.186-2.707,3.213
	c0,1.879,1.149,3.103,2.583,3.103c0.779,0,1.521-0.346,1.891-1.013h0.038l0.074,0.877h1.669c-0.025-0.407-0.05-1.113-0.05-1.805
	V653.474z M406.305,659.566c0,0.149-0.012,0.298-0.037,0.421c-0.112,0.531-0.556,0.901-1.1,0.901c-0.779,0-1.286-0.642-1.286-1.656
	c0-0.951,0.433-1.718,1.298-1.718c0.581,0,0.989,0.408,1.1,0.916c0.024,0.111,0.024,0.233,0.024,0.346V659.566z"/>
<path fill="#FFFFFF" d="M412.98,656.86c-0.742,0-1.311,0.235-1.706,0.631h-0.037c0.21-0.929,0.951-1.793,2.621-1.916
	c0.297-0.025,0.519-0.038,0.729-0.025v-1.447c-0.173-0.011-0.408-0.023-0.755,0.014c-1.248,0.062-2.298,0.444-3.09,1.174
	c-0.876,0.815-1.433,2.076-1.433,3.585c0,1.916,1.051,3.51,3.202,3.51c1.729,0,2.954-1.31,2.954-2.903
	C415.465,657.812,414.328,656.86,412.98,656.86z M412.485,661.001h-0.012c-0.854,0-1.26-0.767-1.298-1.62
	c0-0.222,0.025-0.37,0.086-0.481c0.173-0.395,0.593-0.704,1.101-0.704c0.804,0,1.198,0.643,1.198,1.383
	C413.561,660.396,413.141,661.001,412.485,661.001z"/>
<path fill="#FFFFFF" d="M420.26,656.069c-0.878,0-1.57,0.346-2.015,0.977h-0.024l-0.086-0.841h-1.632
	c0.024,0.568,0.049,1.236,0.049,2.026v6.465h1.879v-3.003h0.025c0.271,0.395,0.84,0.691,1.57,0.691c1.347,0,2.744-1.038,2.744-3.238
	C422.77,657.219,421.583,656.069,420.26,656.069z M419.567,660.938c-0.543,0-0.976-0.382-1.1-0.889
	c-0.024-0.124-0.038-0.248-0.038-0.396v-0.829c0-0.11,0.013-0.235,0.038-0.333c0.124-0.558,0.593-0.953,1.125-0.953
	c0.84,0,1.274,0.73,1.274,1.693C420.867,660.259,420.384,660.938,419.567,660.938z"/>
<path fill="#FFFFFF" d="M427.677,656.069c-0.841,0-1.471,0.334-1.83,0.853h-0.025v-3.448h-1.877v6.971
	c0,0.68-0.026,1.409-0.05,1.805h1.595l0.073-0.841h0.025c0.42,0.718,1.112,0.977,1.817,0.977c1.384,0,2.757-1.087,2.757-3.263
	C430.173,657.269,429.123,656.069,427.677,656.069z M426.96,660.902c-0.544,0-0.977-0.396-1.101-0.89
	c-0.024-0.1-0.038-0.211-0.038-0.334v-0.891c0-0.124,0.013-0.233,0.038-0.346c0.125-0.544,0.593-0.928,1.101-0.928
	c0.878,0,1.297,0.743,1.297,1.682C428.257,660.283,427.762,660.902,426.96,660.902z"/>
<rect x="361.916" y="102.756" opacity="0.2" fill="#1D1D1B" width="26.379" height="36.467"/>
</svg>
